<?xml version="1.0" encoding="UTF-8"?>
<svg id="svg2" xmlns="http://www.w3.org/2000/svg" version="1.1" xmlns:cc="http://creativecommons.org/ns#" xmlns:dc="http://purl.org/dc/elements/1.1/" xmlns:rdf="http://www.w3.org/1999/02/22-rdf-syntax-ns#" xmlns:svg="http://www.w3.org/2000/svg" xmlns:xlink="http://www.w3.org/1999/xlink" viewBox="0 0 997.6 94.35">
  <!-- Generator: Adobe Illustrator 29.6.0, SVG Export Plug-In . SVG Version: 2.1.1 Build 207)  -->
  <defs>
    <style>
      .st0 {
        fill: url(#_Безымянный_градиент_21);
      }

      .st1 {
        fill: #fff;
      }

      .st2 {
        fill: url(#_Безымянный_градиент_2);
      }
    </style>
    <linearGradient id="_Безымянный_градиент_2" data-name="Безымянный градиент 2" x1="498.77" y1="92.11" x2="498.77" y2="47.38" gradientUnits="userSpaceOnUse">
      <stop offset="0" stop-color="#ebf9a3"/>
      <stop offset="0" stop-color="#ebf9a3"/>
      <stop offset=".3" stop-color="#9ef345"/>
      <stop offset=".4" stop-color="#9ef345"/>
      <stop offset=".5" stop-color="#3ac178"/>
      <stop offset=".7" stop-color="#3ac178"/>
      <stop offset=".9" stop-color="#33f7e7"/>
      <stop offset="1" stop-color="#33f7e7"/>
    </linearGradient>
    <linearGradient id="_Безымянный_градиент_21" data-name="Безымянный градиент 2" x1="498.37" y1="25.09" x2="498.37" y2="47.01" xlink:href="#_Безымянный_градиент_2"/>
  </defs>
  <path class="st2" d="M40.29,55.7c-.6,4.07-1.95,7.11-4.1,9.09-2.16,1.95-4.81,2.94-8.03,2.94-4,0-7.25-1.49-9.73-4.42-2.44-2.87-3.68-7.54-3.71-13.94H6.33v.07c0,8.03,1.98,14.22,6.01,18.54,4,4.32,9.3,6.47,15.88,6.47,5.27,0,9.73-1.56,13.34-4.71,3.61-3.15,5.87-7.46,6.76-13.02l-8.03-1.03ZM89.04,49.36c-.07,6.16-1.42,10.72-4.07,13.73-2.69,3.08-6.05,4.63-10.12,4.63s-7.46-1.56-10.15-4.6c-2.69-3.04-4.03-7.64-4.03-13.76h-8.42c.04,8.1,2.12,14.29,6.26,18.57,4.14,4.35,9.62,6.51,16.34,6.51,4.21,0,8.1-.99,11.64-2.97,3.57-1.95,6.3-4.71,8.14-8.28,1.8-3.4,2.72-8,2.79-13.83h-8.38ZM138.01,49.36v23.99h8.17v-23.99h-8.17ZM107.02,73.35h8.17v-23.99h-8.17v23.99ZM176.57,66.03c-1.49.21-2.69.32-3.61.32-1.2,0-2.12-.18-2.79-.57-.64-.39-1.1-.92-1.38-1.59s-.46-2.16-.46-4.49v-10.33h-8.1v9.87c0,4.92.32,8.1.99,9.66.67,1.52,1.8,2.76,3.47,3.68,1.63.96,3.93,1.41,6.9,1.41,1.8,0,3.86-.25,6.16-.74l-1.17-7.22ZM224.12,67.55c-.35-1.98-.53-6.79-.53-14.4v-3.79h-8.24v2.79c0,3.61-.46,6.33-1.34,8.17-1.13,2.37-2.94,4.28-5.38,5.66-2.48,1.34-5.27,2.05-8.42,2.05s-5.59-.74-7.22-2.19c-1.66-1.45-2.48-3.25-2.48-5.45,0-1.42.35-2.69,1.13-3.86.74-1.17,1.84-2.05,3.22-2.65,1.38-.64,3.75-1.17,7.11-1.66,5.59-.81,9.91-1.77,12.84-2.87h-27.03c-.07.04-.11.07-.18.11-1.73,1.17-3.15,2.76-4.21,4.71s-1.63,4.1-1.63,6.47c0,4.03,1.45,7.32,4.28,9.91,2.83,2.58,6.9,3.89,12.21,3.89,3.22,0,6.23-.53,9.02-1.59,2.79-1.06,5.7-2.87,8.74-5.45.25,2.26.78,4.25,1.63,5.94h8.53c-1.03-1.84-1.7-3.79-2.05-5.8ZM267.7,55.7c-.57,4.07-1.91,7.11-4.07,9.09-2.16,1.95-4.81,2.94-8.03,2.94-4,0-7.25-1.49-9.73-4.42-2.44-2.87-3.68-7.54-3.71-13.94h-8.38v.07c0,8.03,1.98,14.22,6.01,18.54,4,4.32,9.3,6.47,15.88,6.47,5.27,0,9.73-1.56,13.34-4.71,3.61-3.15,5.87-7.46,6.76-13.02l-8.07-1.03ZM300.6,66.03c-1.49.21-2.69.32-3.61.32-1.2,0-2.12-.18-2.79-.57-.64-.39-1.1-.92-1.42-1.59-.28-.67-.42-2.16-.42-4.49v-10.33h-8.1v9.87c0,4.92.32,8.1.99,9.66.67,1.52,1.8,2.76,3.43,3.68,1.66.96,3.96,1.41,6.9,1.41,1.84,0,3.89-.25,6.19-.74l-1.17-7.22ZM383.18,49.36c-.46,1.38-.99,2.72-1.66,4.07-2.02,4.07-4.74,7.32-8.21,9.76-2.58,1.84-4.71,2.76-6.3,2.76-.88,0-1.63-.28-2.26-.88-.6-.6-.92-1.31-.92-2.12,0-.46.46-2.79,1.38-7.04l1.41-6.54h-7.75c-.25,1.27-.6,2.51-1.03,3.75-1.1,3.08-2.51,5.62-4.21,7.61-1.7,2.02-3.5,3.5-5.38,4.53-1.87,1.03-3.68,1.52-5.34,1.52-2.55,0-4.81-1.17-6.79-3.47-1.95-2.3-2.94-5.52-2.94-9.66,0-1.34.14-2.79.39-4.28h-8.53c-.21,1.24-.28,2.51-.28,3.75,0,3.89.81,7.46,2.41,10.75,1.59,3.25,3.64,5.7,6.19,7.25,2.55,1.59,5.17,2.37,7.85,2.37,2.44,0,4.88-.71,7.32-2.05,2.44-1.38,4.63-3.22,6.62-5.48.18,1.84.46,3.15.85,3.89.6,1.2,1.56,2.09,2.87,2.72,1.27.64,2.97.96,5.06.96,6.51,0,12.56-3.04,18.04-9.16,4.14-4.56,6.9-9.55,8.24-15h-7.04ZM385.26,72.5c-2.69,3.79-6.69,7.04-12.03,9.69-5.38,2.69-12.03,4-19.95,4-7.39,0-14.15-1.27-20.27-3.82-6.08-2.58-10.75-6.51-13.97-11.89-3.22-5.34-4.81-11.75-4.81-19.14,0-.67,0-1.31.04-1.98h-6.69c-.04.88-.07,1.8-.07,2.69,0,6.65,1.27,12.81,3.79,18.54,2.05,4.49,5.06,8.49,9.06,11.96,4,3.47,8.81,6.05,14.51,7.78,5.66,1.73,11.85,2.58,18.57,2.58,7.29,0,13.55-.96,18.71-2.87,5.17-1.95,9.62-4.56,13.37-7.85,3.75-3.29,6.4-6.54,7.96-9.69h-8.21ZM425.77,49.36h-11.39l-16.88,23.99h9.91l12.67-19.03,2.62,4.07,9.91,14.96h10.05l-16.88-23.99ZM481.14,49.36c-.07,5.8-1.34,10.12-3.79,12.88-2.51,2.9-5.66,4.35-9.45,4.35s-6.9-1.45-9.41-4.35c-2.37-2.76-3.64-7.04-3.75-12.88h-8.42c.07,6.51,1.87,12.13,5.45,16.8,3.61,4.78,8.74,7.18,15.39,7.18,5.31,0,9.76-2.09,13.34-6.3.04,5.31-.18,8.81-.6,10.47-.71,2.72-2.12,4.85-4.17,6.37-2.05,1.52-4.99,2.26-8.74,2.26-3.54,0-6.3-.74-8.31-2.26-1.52-1.13-2.44-2.9-2.79-5.38l-7.92-1.17c-.14,5.2,1.59,9.09,5.13,11.67,3.54,2.62,8.17,3.89,13.94,3.89,4.85,0,8.92-.92,12.24-2.72,3.29-1.8,5.73-4.28,7.25-7.43,1.52-3.11,2.3-8.46,2.3-15.96v-17.44h-7.68ZM501.06,49.36v23.99h8.17v-23.99h-8.17ZM573.83,49.36h-44.43v.28c0,7.85,2.05,13.94,6.19,18.29,4.14,4.32,9.73,6.51,16.77,6.51,5.63,0,10.22-1.38,13.8-4.1,3.61-2.72,6.08-6.55,7.43-11.46l-8.46-1.06c-1.24,3.47-2.94,5.98-5.06,7.54-2.09,1.59-4.67,2.37-7.64,2.37-4.03,0-7.39-1.42-10.08-4.21-2.69-2.83-4.21-6.9-4.49-12.17h35.94c.04-.85.04-1.49.04-1.98ZM625.55,49.36h-44.43v.28c0,7.85,2.05,13.94,6.19,18.29,4.14,4.32,9.73,6.51,16.77,6.51,5.59,0,10.19-1.38,13.8-4.1,3.61-2.72,6.08-6.55,7.39-11.46l-8.46-1.06c-1.24,3.47-2.9,5.98-5.02,7.54-2.12,1.59-4.67,2.37-7.68,2.37-4.03,0-7.39-1.42-10.08-4.21-2.69-2.83-4.17-6.9-4.49-12.17h35.98c0-.85.04-1.49.04-1.98ZM666.55,49.36v23.99h8.17v-23.99h-8.17ZM635.53,73.35h8.17v-23.99h-8.17v23.99ZM689.56,73.35v-9.3h9.31v9.3h-9.31ZM754.79,49.36h-44.43v.28c0,7.85,2.05,13.94,6.19,18.29,4.14,4.32,9.73,6.51,16.77,6.51,5.59,0,10.19-1.38,13.8-4.1,3.61-2.72,6.09-6.55,7.39-11.46l-8.42-1.06c-1.24,3.47-2.94,5.98-5.06,7.54-2.12,1.59-4.67,2.37-7.68,2.37-4,0-7.36-1.42-10.05-4.21-2.72-2.83-4.21-6.9-4.49-12.17h35.94c.04-.85.04-1.49.04-1.98ZM795.79,49.36v23.99h8.17v-23.99h-8.17ZM764.8,73.35h8.14v-23.99h-8.14v23.99ZM858.2,49.36h-44.43v.28c0,7.85,2.05,13.94,6.19,18.29,4.14,4.32,9.73,6.51,16.77,6.51,5.63,0,10.22-1.38,13.8-4.1,3.61-2.72,6.08-6.55,7.43-11.46l-8.46-1.06c-1.24,3.47-2.94,5.98-5.02,7.54-2.12,1.59-4.71,2.37-7.68,2.37-4.03,0-7.39-1.42-10.08-4.21-2.69-2.83-4.21-6.9-4.49-12.17h35.94c.04-.85.04-1.49.04-1.98ZM868.1,49.36v23.99h8.17v-23.99h-8.17ZM930.86,49.36c-.07,5.8-1.34,10.12-3.79,12.88-2.55,2.9-5.7,4.35-9.45,4.35s-6.93-1.45-9.45-4.35c-2.37-2.76-3.61-7.04-3.71-12.88h-8.46c.07,6.51,1.91,12.13,5.45,16.8,3.64,4.78,8.77,7.18,15.39,7.18,5.34,0,9.8-2.09,13.37-6.3,0,5.31-.18,8.81-.6,10.47-.74,2.72-2.12,4.85-4.17,6.37-2.05,1.52-4.99,2.26-8.77,2.26-3.5,0-6.26-.74-8.31-2.26-1.49-1.13-2.44-2.9-2.76-5.38l-7.92-1.17c-.14,5.2,1.56,9.09,5.09,11.67,3.57,2.62,8.21,3.89,13.94,3.89,4.85,0,8.95-.92,12.24-2.72,3.33-1.8,5.73-4.28,7.29-7.43,1.52-3.11,2.26-8.46,2.26-15.96v-17.44h-7.64ZM973.35,49.36l-1.41,3.89c-1.31,3.57-2.44,7.22-3.36,10.97-1.03-3.89-2.19-7.61-3.5-11.18l-1.31-3.68h-8.35l9.13,24.09c-.35.85-.6,1.52-.74,1.98-1.13,3.25-1.98,5.27-2.48,6.08-.71,1.1-1.59,1.95-2.69,2.55-1.1.6-2.55.92-4.35.92-1.34,0-2.9-.25-4.71-.74l.92,7.68c1.95.67,3.71.99,5.27.99,2.62,0,4.85-.64,6.72-1.88,1.88-1.27,3.54-3.22,4.99-5.94,1.1-1.98,2.62-5.62,4.6-10.93l9.27-24.8h-8ZM309.65,88.04H8.66v-3.54h300.99v3.54ZM894.32,88.04h-393.46v-3.54h393.46v3.54ZM991.21,88.04h-9.73v-3.54h9.73v3.54ZM443.5,88.04h-47.49v-3.54h47.49v3.54Z"/>
  <path class="st1" d="M214.81,49.36c.18-.07.35-.14.53-.21v.21h-.53Z"/>
  <path class="st0" d="M47.55,39.32l-7.96,1.2c-.74-3.22-2.09-5.66-4-7.29-1.95-1.66-4.25-2.48-6.97-2.48-4.14,0-7.46,1.49-10.05,4.42-2.58,2.97-3.86,7.64-3.86,14.01v.18H6.33c0-5.17.85-9.73,2.58-13.59,1.73-3.93,4.35-6.86,7.85-8.81,3.54-1.95,7.39-2.94,11.53-2.94,5.24,0,9.52,1.34,12.84,4s5.45,6.4,6.4,11.29ZM91.13,30.58c-4.21-4.35-9.62-6.55-16.27-6.55-5.94,0-11,1.8-15.14,5.38-4.99,4.28-7.46,10.9-7.46,19.85v.11h8.42v-.11c0-6.19,1.34-10.79,4.03-13.87,2.69-3.04,6.08-4.56,10.15-4.56s7.39,1.52,10.12,4.6c2.69,3.08,4.07,7.57,4.07,13.55v.39h8.38v-.81c0-7.64-2.09-13.66-6.3-17.97ZM145.72,35.78c-.46-2.33-1.31-4.35-2.51-6.05-1.24-1.7-3.04-3.08-5.48-4.1-2.44-1.06-5.09-1.59-8.03-1.59-6.69,0-11.78,2.65-15.32,7.96v-6.86h-7.36v24.23h8.17v-2.34c0-6.19,1.27-10.37,3.79-12.59,2.51-2.19,5.52-3.29,9.02-3.29,2.16,0,4.07.5,5.7,1.45,1.63.99,2.72,2.3,3.36,3.96.64,1.66.96,4.14.96,7.46v5.34h8.17v-5.66c0-3.79-.14-6.44-.46-7.92ZM168.33,25.13V8.29l-8.1,4.92v11.92h-6.01v6.37h6.01v17.87h8.1v-17.87h8.24v-6.37h-8.24ZM223.2,34.72c-.5-2.23-1.34-4.1-2.55-5.55-1.2-1.49-3.11-2.69-5.7-3.68-2.55-.96-5.91-1.45-10.01-1.45s-7.82.57-10.93,1.73c-3.15,1.13-5.55,2.72-7.22,4.85-1.7,2.09-2.87,4.85-3.61,8.28l8,1.1c.88-3.43,2.23-5.8,4.07-7.15,1.84-1.34,4.67-2.02,8.49-2.02,4.14,0,7.22.92,9.3,2.76,1.56,1.34,2.33,3.71,2.33,7.04,0,.28-.04,1.03-.04,2.12-3.11,1.1-8,2.02-14.58,2.83-3.25.39-5.66.78-7.29,1.2-2.09.6-4,1.45-5.7,2.58h27.03c.18-.07.35-.14.53-.21v.21h8.24v-7.11c0-3.64-.14-6.16-.39-7.54ZM268.59,28.03c-3.33-2.65-7.61-4-12.84-4-4.14,0-8,.99-11.53,2.94-3.5,1.95-6.12,4.88-7.85,8.81-1.73,3.86-2.58,8.42-2.58,13.59h8.38v-.18c0-6.37,1.27-11.04,3.86-14.01,2.58-2.94,5.91-4.42,10.05-4.42,2.72,0,5.02.81,6.97,2.48,1.91,1.63,3.25,4.07,4,7.29l7.96-1.2c-.96-4.88-3.08-8.63-6.4-11.29ZM292.36,25.13V8.29l-8.1,4.92v11.92h-6.01v6.37h6.01v17.87h8.1v-17.87h8.24v-6.37h-8.24ZM386.86,23.93c-3.47-6.09-8.17-10.68-14.15-13.76-5.98-3.04-12.74-4.6-20.24-4.6-9.69,0-17.9,2.19-24.69,6.54-6.83,4.35-12.06,10.65-15.74,18.82-2.69,5.91-4.14,12.03-4.46,18.43h6.69c.28-6.37,1.84-12.31,4.78-17.94,3.22-6.19,7.78-10.93,13.62-14.26,5.87-3.33,12.35-4.99,19.42-4.99,6.19,0,11.85,1.34,16.98,3.96,5.13,2.65,8.99,6.16,11.6,10.54,2.58,4.39,3.86,9.09,3.86,14.15,0,2.9-.46,5.77-1.34,8.53h7.04c.67-2.69,1.03-5.48,1.03-8.38,0-6.16-1.45-11.82-4.39-17.05ZM363.61,25.45l-1.56,7.04c-1.73-2.79-3.79-4.92-6.16-6.3-2.41-1.34-4.92-2.05-7.54-2.05-3.47,0-7.04,1.2-10.68,3.64-3.68,2.41-6.72,6.05-9.2,10.86-1.84,3.57-2.97,7.15-3.43,10.72h8.53c.25-1.38.6-2.79,1.06-4.28.96-3.11,2.26-5.77,3.86-7.96,1.59-2.19,3.25-3.75,4.99-4.74,1.7-.99,3.5-1.49,5.45-1.49,2.94,0,5.45,1.13,7.46,3.43,2.05,2.26,3.08,5.45,3.08,9.55,0,1.84-.21,3.68-.6,5.48h7.75l5.09-23.92h-8.1ZM441.37,25.13h-9.76l-8.14,11.39c-1.1,1.56-2.33,3.33-3.68,5.31-.85-1.45-1.95-3.25-3.36-5.38l-7.39-11.32h-10.22l16.31,23.17-.74,1.06h11.39l-1.06-1.52,16.66-22.71ZM481.28,25.13v5.8c-3.71-4.6-8.38-6.9-14.08-6.9-4.28,0-8,1.06-11.14,3.18-3.15,2.12-5.59,5.13-7.25,9.02-1.66,3.89-2.48,8.14-2.48,12.74v.39h8.42c-.04-.32-.04-.64-.04-.99,0-5.8,1.27-10.19,3.82-13.13,2.55-2.97,5.63-4.42,9.27-4.42s6.83,1.49,9.45,4.49c2.62,2.97,3.93,7.43,3.93,13.34,0,.25,0,.46-.04.71h7.68v-24.23h-7.54ZM518.85,24.03c-1.91,0-3.64.57-5.24,1.66-1.59,1.06-3.33,3.33-5.2,6.76v-7.32h-7.36v24.23h8.17v-1.24c0-3.47.46-6.65,1.38-9.55.6-1.91,1.59-3.4,3.04-4.46,1.42-1.1,3.01-1.63,4.81-1.63,1.98,0,4,.6,5.98,1.77l2.83-7.57c-2.87-1.77-5.66-2.65-8.42-2.65ZM573.83,49.15v.21h-44.43c.04-7.96,2.12-14.19,6.26-18.61,4.17-4.46,9.59-6.72,16.24-6.72s11.75,2.19,15.81,6.58c4.1,4.42,6.12,10.58,6.12,18.54ZM565.2,44.62c-.35-4.07-1.38-7.11-3.08-9.13-2.58-3.15-5.98-4.74-10.12-4.74-3.75,0-6.9,1.27-9.48,3.79-2.55,2.51-3.96,5.87-4.21,10.08h26.89ZM625.55,49.15v.21h-44.43c.04-7.96,2.12-14.19,6.26-18.61,4.17-4.46,9.59-6.72,16.24-6.72s11.71,2.19,15.81,6.58c4.07,4.42,6.12,10.58,6.12,18.54ZM616.92,44.62c-.35-4.07-1.38-7.11-3.08-9.13-2.62-3.15-5.98-4.74-10.12-4.74-3.75,0-6.93,1.27-9.48,3.79-2.55,2.51-3.96,5.87-4.25,10.08h26.92ZM674.27,35.78c-.5-2.33-1.34-4.35-2.55-6.05-1.2-1.7-3.04-3.08-5.48-4.1-2.44-1.06-5.09-1.59-8-1.59-6.69,0-11.82,2.65-15.35,7.96v-6.86h-7.36v24.23h8.17v-2.34c0-6.19,1.27-10.37,3.79-12.59,2.55-2.19,5.55-3.29,9.02-3.29,2.19,0,4.07.5,5.7,1.45,1.63.99,2.76,2.3,3.4,3.96.64,1.66.96,4.14.96,7.46v5.34h8.17v-5.66c0-3.79-.18-6.44-.46-7.92ZM754.79,49.15v.21h-44.43c.04-7.96,2.12-14.19,6.26-18.61,4.17-4.46,9.59-6.72,16.24-6.72s11.71,2.19,15.81,6.58c4.07,4.42,6.12,10.58,6.12,18.54ZM746.15,44.62c-.35-4.07-1.38-7.11-3.08-9.13-2.62-3.15-5.98-4.74-10.12-4.74-3.75,0-6.9,1.27-9.48,3.79-2.55,2.51-3.96,5.87-4.25,10.08h26.92ZM803.5,35.78c-.5-2.33-1.34-4.35-2.55-6.05-1.2-1.7-3.04-3.08-5.45-4.1-2.44-1.06-5.13-1.59-8.03-1.59-6.69,0-11.82,2.65-15.35,7.96v-6.86h-7.32v24.23h8.14v-2.34c0-6.19,1.27-10.37,3.82-12.59,2.51-2.19,5.52-3.29,8.99-3.29,2.19,0,4.1.5,5.7,1.45,1.63.99,2.76,2.3,3.4,3.96.64,1.66.96,4.14.96,7.46v5.34h8.17v-5.66c0-3.79-.14-6.44-.46-7.92ZM858.2,49.15v.21h-44.43c.04-7.96,2.12-14.19,6.26-18.61,4.17-4.46,9.59-6.72,16.27-6.72s11.71,2.19,15.78,6.58c4.1,4.42,6.12,10.58,6.12,18.54ZM849.6,44.62c-.39-4.07-1.42-7.11-3.11-9.13-2.58-3.15-5.98-4.74-10.12-4.74-3.75,0-6.9,1.27-9.45,3.79-2.58,2.51-4,5.87-4.25,10.08h26.92ZM885.9,24.03c-1.91,0-3.64.57-5.24,1.66-1.59,1.06-3.33,3.33-5.2,6.76v-7.32h-7.36v24.23h8.17v-1.24c0-3.47.46-6.65,1.38-9.55.6-1.91,1.59-3.4,3.04-4.46,1.42-1.1,3.01-1.63,4.81-1.63,1.98,0,4,.6,5.98,1.77l2.83-7.57c-2.87-1.77-5.66-2.65-8.42-2.65ZM930.97,25.13v5.8c-3.68-4.6-8.38-6.9-14.05-6.9-4.28,0-8,1.06-11.14,3.18-3.18,2.12-5.59,5.13-7.25,9.02-1.66,3.89-2.51,8.14-2.51,12.74v.39h8.46c-.04-.32-.04-.64-.04-.99,0-5.8,1.27-10.19,3.79-13.13,2.55-2.97,5.66-4.42,9.27-4.42s6.86,1.49,9.48,4.49c2.62,2.97,3.93,7.43,3.93,13.34,0,.25,0,.46-.04.71h7.64v-24.23h-7.54ZM955.03,25.13h-8.77l9.16,24.23h8.35l-8.74-24.23ZM982.23,25.13l-8.88,24.23h8l9.06-24.23h-8.17Z"/>
</svg>