<?xml version="1.0" encoding="UTF-8"?>
<svg id="svg2" xmlns="http://www.w3.org/2000/svg" version="1.1" xmlns:cc="http://creativecommons.org/ns#" xmlns:dc="http://purl.org/dc/elements/1.1/" xmlns:rdf="http://www.w3.org/1999/02/22-rdf-syntax-ns#" xmlns:svg="http://www.w3.org/2000/svg" xmlns:xlink="http://www.w3.org/1999/xlink" viewBox="0 0 1112 474.4">
  <defs>
    <style>
      .cls-1 {
        fill: url(#_Безымянный_градиент);
      }

      .cls-1, .cls-2 {
        stroke-width: 0px;
      }

      .cls-2 {
        fill: url(#_Безымянный_градиент-2);
      }
    </style>
    <linearGradient id="_Безымянный_градиент" data-name="Безымянный градиент" x1="556" y1="557.9" x2="556" y2="196.7" gradientUnits="userSpaceOnUse">
      <stop offset="0" stop-color="#ebf9a3"/>
      <stop offset="0" stop-color="#ebf9a3"/>
      <stop offset=".3" stop-color="#9ef345"/>
      <stop offset=".4" stop-color="#9ef345"/>
      <stop offset=".5" stop-color="#3ac178"/>
      <stop offset=".7" stop-color="#3ac178"/>
      <stop offset=".9" stop-color="#33f7e7"/>
      <stop offset="1" stop-color="#33f7e7"/>
    </linearGradient>
    <linearGradient id="_Безымянный_градиент-2" data-name="Безымянный градиент" x1="548.3" y1="-8.6" x2="551.6" y2="263.8" xlink:href="#_Безымянный_градиент"/>
  </defs>
  <path class="cls-1" d="M913.6,413v-1.3l33.5-31.5c54.9-52.9,97.5-97.2,122.4-141.6h-60.1c-25.2,38.8-68.6,82.6-131.9,142.9l-45.3,44v35.4h272.3v-47.9h-190.9ZM718.1,238.6c-.3,100-51.4,182.9-141.7,182.9s-141.7-84.6-141.7-179.8,0-2.1,0-3.2h-60.4c0,1.5,0,3,0,4.5,0,133.8,81.4,225,198.8,225s204-80.1,205.3-229.5h-60.4ZM331,401.2c-23,11.2-58.4,18.4-93.8,18.4-106.9,0-169.3-68.9-169.3-177.8s0-2.1,0-3.2H7.6c0,1.7,0,3.4,0,5.1,0,145.7,93.2,224.4,217.8,224.4s96.4-10.5,116.8-21l-11.2-45.9Z"/>
  <path class="cls-2" d="M434.6,239.5c.3-100,51.4-182.9,141.7-182.9s141.7,84.6,141.7,179.8,0,2.1,0,3.2h60.4c0-1.5,0-3,0-4.5,0-133.8-81.4-225-198.8-225s-204,80.1-205.3,229.5h60.4ZM1094,151.2c0,30.7-8.7,59-24.5,87.4h-60.1c18.2-27.9,26.9-53.2,26.9-80.2,0-43.3-20.3-83.3-84-83.3s-70.9,19.7-90.5,36.1l-18.4-40.7c28.9-24.3,71.5-43.3,120.1-43.3,91.9,0,130.6,63,130.6,124ZM238.5,11.5c54.5,0,89.9,11.8,105,19.7l-14.4,46.6c-21-10.5-51.8-18.4-88.6-18.4-102.7,0-171.3,65.1-172.5,179.2H7.6C9.8,102.3,103,11.5,238.5,11.5Z"/>
</svg>