<?xml version="1.0" encoding="UTF-8"?>
<svg version="1.1" xmlns="http://www.w3.org/2000/svg" width="4157" height="2530">
<path d="M0 0 C1.33310715 -0.00424107 1.33310715 -0.00424107 2.69314575 -0.00856781 C7.41766637 -0.02342586 12.14215764 -0.03273352 16.86669922 -0.03710938 C20.66269812 -0.0414439 24.45846329 -0.05515791 28.25439453 -0.078125 C63.04529805 -0.28402271 97.69417399 1.21381774 132.25 5.453125 C133.10825378 5.55572632 133.96650757 5.65832764 134.85076904 5.76403809 C219.91389916 15.99213909 302.34966217 39.6007019 429.91894531 101.64501953 C432.44776242 103.10107427 434.98399964 104.54304133 437.5234375 105.98046875 C471.9582608 125.55937078 504.16581574 148.62914031 534.78710938 173.70166016 C536.43155563 175.04509061 538.08253952 176.38050931 539.734375 177.71484375 C545.06661886 182.03034619 550.23280839 186.4789074 555.3046875 191.09765625 C557.32654184 192.93230185 559.37178522 194.73081286 561.4375 196.515625 C572.63626758 206.30736415 583.24678267 216.66472437 593.74755859 227.1953125 C596.01415993 229.46731869 598.28611959 231.73386944 600.55859375 234 C602.02636271 235.46842917 603.49382176 236.9371682 604.9609375 238.40625 C605.62773529 239.07102356 606.29453308 239.73579712 606.98153687 240.42071533 C610.84839322 244.30667013 614.53602684 248.29960801 618.1137085 252.45372009 C620.18967834 254.85677193 622.34530352 257.1831842 624.5 259.515625 C628.58937787 263.99975428 632.47119021 268.60579738 636.28125 273.328125 C638.37534348 275.89687967 640.50713341 278.42384842 642.66210938 280.94116211 C648.09237835 287.28878301 653.27503507 293.78350358 658.30517578 300.45361328 C659.69761037 302.2993747 661.09683331 304.13987792 662.49609375 305.98046875 C693.61282272 347.04271837 720.6411783 390.88674226 743.90820312 436.82080078 C745.49325455 439.94356847 747.09552363 443.05676883 748.703125 446.16796875 C787.70269681 522.17377216 813.19569468 605.36653131 852.3125 854.390625 C852.40390762 855.78181549 852.40390762 855.78181549 852.49716187 857.20111084 C854.26963246 884.57576504 854.83298772 911.96413874 854.8125 939.390625 C854.81238041 940.10738403 854.81226082 940.82414307 854.8121376 941.56262207 C854.80628689 969.47736961 854.17202227 997.32688193 852.625 1025.203125 C852.57408203 1026.12581177 852.52316406 1027.04849854 852.47070312 1027.99914551 C847.29820027 1120.37988282 833.417095 1212.84245481 727.98925781 1498.75976562 C726.69292314 1501.08147597 725.4169504 1503.41299716 724.1484375 1505.75 C698.71447105 1552.46872574 667.51153229 1596.06970308 633.05761719 1636.51611328 C631.63900845 1638.18662903 630.22906198 1639.86413542 628.8203125 1641.54296875 C615.88085457 1656.90080959 601.79983406 1671.12153146 587.625 1685.328125 C586.94496918 1686.01083466 586.26493835 1686.69354431 585.56430054 1687.39694214 C578.76225894 1694.21928558 571.98722132 1700.97983591 564.625 1707.203125 C562.84929779 1708.82280317 561.07791693 1710.44724218 559.3125 1712.078125 C554.43163191 1716.52498977 549.40124476 1720.72741401 544.26220703 1724.87060547 C542.40111932 1726.38534104 540.55742794 1727.91984285 538.71484375 1729.45703125 C529.88224428 1736.81565421 520.91942333 1743.92276774 511.64648438 1750.71875 C509.63753781 1752.19391849 507.63896409 1753.68238128 505.640625 1755.171875 C454.47080892 1793.01432934 397.55019381 1823.41974532 338.625 1847.203125 C336.88234863 1847.90671143 336.88234863 1847.90671143 335.10449219 1848.62451172 C254.74178901 1880.73490405 168.70283307 1898.95462545 -327.93261719 1845.34301758 C-389.44344337 1818.68800874 -448.0615949 1785.31498566 -500.375 1743.203125 C-501.01147461 1742.69281738 -501.64794922 1742.18250977 -502.30371094 1741.65673828 C-515.12211712 1731.36885689 -527.65560099 1720.8147719 -539.71484375 1709.64453125 C-541.88018706 1707.65724847 -544.07344755 1705.73061842 -546.3125 1703.828125 C-550.6509548 1700.07962744 -554.62834404 1695.97867414 -558.65454102 1691.90209961 C-561.42969715 1689.10421957 -564.20180444 1686.39523715 -567.25 1683.890625 C-570.27119288 1681.39740757 -572.69653345 1678.58769756 -575.2265625 1675.60546875 C-577.99127016 1672.51402291 -580.92488894 1669.61655765 -583.875 1666.703125 C-587.97972825 1662.64005737 -591.96937235 1658.55353144 -595.7109375 1654.1484375 C-597.67639014 1651.85079568 -599.71229871 1649.62439377 -601.75 1647.390625 C-605.64741447 1643.07186843 -609.34800355 1638.62550449 -613.00390625 1634.1015625 C-615.0714738 1631.57415703 -617.18064263 1629.0898042 -619.31201172 1626.61621094 C-624.90078323 1620.11284104 -630.10449149 1613.38264969 -635.1953125 1606.484375 C-637.27840035 1603.66237566 -639.39683427 1600.87457537 -641.5546875 1598.109375 C-668.16051216 1563.77019598 -690.92202685 1526.18607797 -711.43615723 1487.95257568 C-712.35227083 1486.24547879 -713.27131349 1484.5399548 -714.19042969 1482.83447266 C-723.78307201 1464.95871861 -732.32009174 1446.68938303 -740.51623535 1428.1427002 C-741.32687797 1426.3118117 -742.1432406 1424.48345888 -742.95996094 1422.65527344 C-781.30657666 1336.65606433 -805.0171073 1244.02296685 -828.375 1052.203125 C-828.42720703 1051.3708136 -828.47941406 1050.5385022 -828.53320312 1049.68096924 C-834.2855089 957.04709765 -830.29253765 863.15752192 -692.375 389.203125 C-691.60760498 387.88368896 -691.60760498 387.88368896 -690.82470703 386.53759766 C-667.01792503 345.90826243 -639.32260509 307.71253061 -608.80761719 271.89013672 C-607.38900845 270.21962097 -605.97906198 268.54211458 -604.5703125 266.86328125 C-591.63085457 251.50544041 -577.54983406 237.28471854 -563.375 223.078125 C-562.69496918 222.39541534 -562.01493835 221.71270569 -561.31430054 221.00930786 C-554.51225894 214.18696442 -547.73722132 207.42641409 -540.375 201.203125 C-538.59929779 199.58344683 -536.82791693 197.95900782 -535.0625 196.328125 C-530.1871437 191.88628191 -525.16284511 187.68757853 -520.02978516 183.54882812 C-518.11704894 181.99335423 -516.22015231 180.41965948 -514.32421875 178.84375 C-506.16572713 172.06627936 -497.94933637 165.45257912 -489.375 159.203125 C-488.18202103 158.31546777 -486.98933043 157.42742291 -485.796875 156.5390625 C-413.75017087 103.28676621 -333.02568024 64.1076066 0 0 Z M-367.875 352.578125 C-368.39382751 353.09427368 -368.91265503 353.61042236 -369.44720459 354.14221191 C-375.30941771 359.98143232 -381.0246569 365.88457492 -386.375 372.203125 C-387.32455855 373.29771053 -388.27504731 374.39148994 -389.2265625 375.484375 C-401.96308028 390.23156318 -414.00445741 405.37507947 -425.375 421.203125 C-425.96458496 422.02361328 -426.55416992 422.84410156 -427.16162109 423.68945312 C-465.75140026 477.61606067 -496.29722917 537.86456414 -518.67242432 600.24511719 C-519.15361807 601.58615582 -519.63640381 602.92662398 -520.12054443 604.26660156 C-551.02577832 689.81647454 -568.45205931 780.03981641 -577.76172256 952.87444687 C-577.74975579 956.08106333 -577.74282112 959.28766024 -577.73690796 962.49429321 C-577.67270443 992.55723075 -577.43080533 1022.5386395 -574.62823486 1052.49383545 C-574.36289372 1055.33264674 -574.10860119 1058.17232622 -573.85498047 1061.01220703 C-565.8585746 1149.2830798 -547.14500244 1237.08441497 -505.375 1343.203125 C-505.1126355 1343.8239093 -504.850271 1344.4446936 -504.57995605 1345.08428955 C-491.98795165 1374.77421219 -477.7139949 1404.06680205 -460.93652344 1431.62255859 C-459.4125248 1434.1411117 -457.92393531 1436.67724851 -456.4453125 1439.22265625 C-441.62493226 1464.60607172 -424.52623523 1488.85960736 -405.78076172 1511.49316406 C-403.86127763 1513.8280141 -401.99366567 1516.20251439 -400.125 1518.578125 C-396.74764656 1522.81581479 -393.16926648 1526.83961118 -389.51953125 1530.84375 C-387.65106887 1532.89939896 -385.81806264 1534.97802401 -384 1537.078125 C-375.85976352 1546.37339503 -367.41213894 1555.2659632 -358.6875 1564.015625 C-357.35114502 1565.35886841 -357.35114502 1565.35886841 -355.98779297 1566.72924805 C-350.94312233 1571.7621869 -345.78355563 1576.56623199 -340.375 1581.203125 C-338.76731627 1582.65758017 -337.16260285 1584.11533395 -335.5625 1585.578125 C-330.31079043 1590.30545813 -324.90232593 1594.8030721 -319.375 1599.203125 C-318.74094238 1599.70972656 -318.10688477 1600.21632813 -317.45361328 1600.73828125 C-242.16977779 1660.69603585 -152.81121755 1698.13355752 -25.375 1713.203125 C-24.42189941 1713.27515137 -23.46879883 1713.34717773 -22.48681641 1713.42138672 C52.68591073 1718.75951407 131.49751079 1708.21325557 359.5715332 1586.6237793 C370.29536897 1577.30179162 380.44318308 1567.48199674 390.5 1557.453125 C391.04629059 1556.90951324 391.59258118 1556.36590149 392.15542603 1555.80581665 C398.19925004 1549.78446503 404.085588 1543.69774165 409.625 1537.203125 C411.0382355 1535.6583124 412.45440409 1534.11617175 413.875 1532.578125 C418.42222451 1527.53847686 422.5902243 1522.25541636 426.74609375 1516.89453125 C428.64887011 1514.44199191 430.57701482 1512.01402854 432.53515625 1509.60546875 C462.76394474 1472.42120667 487.09152566 1430.89695327 508.625 1388.203125 C509.12854004 1387.20684082 509.63208008 1386.21055664 510.15087891 1385.18408203 C548.22429119 1309.30421628 572.27621132 1225.87142329 598.40496826 1049.73602295 C598.6203469 1047.25668926 598.84959494 1044.77901025 599.08251953 1042.30126953 C601.78069465 1013.13890288 601.91562955 983.95697225 601.93507385 954.69464874 C601.93745887 951.63095968 601.94277437 948.56728574 601.94836426 945.50360107 C601.99294544 912.11027385 601.02013162 878.83833328 597.875 845.578125 C597.79263092 844.68920563 597.71026184 843.80028625 597.62539673 842.88442993 C589.60433677 757.06406105 570.89714214 672.04124205 507.625 518.203125 C507.05958496 517.0697168 506.49416992 515.93630859 505.91162109 514.76855469 C497.22607192 497.43708245 487.73623171 480.73253569 477.625 464.203125 C476.80902344 462.86531982 476.80902344 462.86531982 475.9765625 461.50048828 C461.82482855 438.40065606 446.04000269 415.96338244 428.625 395.203125 C427.12394691 393.34981077 425.623966 391.49562768 424.125 389.640625 C420.44937414 385.14534739 416.63255389 380.80779393 412.72265625 376.515625 C410.92992554 374.53928128 409.17704773 372.5385577 407.4375 370.515625 C395.34355719 356.67014565 382.62757797 342.73783447 368.56640625 330.86328125 C366.09055003 328.74610038 363.70838732 326.53530671 361.3125 324.328125 C355.90999945 319.40799057 350.33513746 314.76054754 344.625 310.203125 C343.85446289 309.5831665 343.85446289 309.5831665 343.06835938 308.95068359 C274.3324898 253.70017658 192.80360413 216.62187811 -367.875 352.578125 Z " fill="#78E173" transform="translate(2389.375,41.796875)"/>
<path d="M0 0 C1.11103088 0.0129007 1.11103088 0.0129007 2.24450684 0.02606201 C75.89223978 0.9174142 149.47193202 7.00200646 222 20 C222.76197693 20.13645935 223.52395386 20.2729187 224.309021 20.41351318 C265.80156609 27.89524067 307.09467065 37.78631113 347.03869629 51.33648682 C349.00914622 52.00309419 350.98221814 52.66136621 352.95605469 53.31787109 C376.63143543 61.21662006 399.77106805 70.61647889 422 82 C419.86216504 91.04382435 417.26583266 99.90297846 414.4921875 108.76953125 C414.04965263 110.19295602 413.60742548 111.61647648 413.16548157 113.04008484 C412.22691054 116.06133348 411.28633272 119.08194659 410.34408569 122.10205078 C408.85278076 126.88210794 407.36606166 131.66358364 405.88012695 136.4453125 C404.36642879 141.3156989 402.85248097 146.18600665 401.33692932 151.05581665 C397.27792978 164.09843846 393.23728014 177.14665467 389.20709229 190.19821167 C388.19166651 193.48650741 387.17574878 196.77465075 386.15966797 200.06274414 C383.71909625 207.96070541 381.27921559 215.8588801 378.8394165 223.75708008 C376.443657 231.51270277 374.04763481 239.26824421 371.65127563 247.02368164 C370.52270434 250.67651318 369.39452254 254.32946487 368.26635742 257.98242188 C367.5838413 260.19141233 366.90130653 262.40039703 366.21875 264.609375 C365.74977043 266.1284848 365.74977043 266.1284848 365.27131653 267.67828369 C364.98520004 268.60397156 364.69908356 269.52965942 364.40429688 270.48339844 C364.15578979 271.28791443 363.90728271 272.09243042 363.65124512 272.92132568 C363.11904364 274.62003099 362.56292434 276.31122698 362 278 C357.59971001 276.6883751 353.6310923 274.9090515 349.53369141 272.87915039 C278.79420024 237.86385205 199.29487643 220.27854129 67.8125 204.3125 C66.9922937 204.25147095 66.1720874 204.19044189 65.32702637 204.12756348 C41.349047 202.37142637 17.41461841 201.79151171 -6.625 201.8125 C-7.6578544 201.81290031 -7.6578544 201.81290031 -8.71157455 201.81330872 C-31.52440713 201.82436942 -54.25108382 202.16857523 -77 204 C-77.82254272 204.06552063 -78.64508545 204.13104126 -79.49255371 204.19854736 C-158.2434547 210.53241492 -236.46241055 225.93568652 -346 271 C-346.95551758 271.44424316 -347.91103516 271.88848633 -348.89550781 272.34619141 C-405.63414998 298.82604122 -458.13862642 333.70535558 -504.08203125 376.30078125 C-506.00618795 378.08069059 -507.9409187 379.84924597 -509.88671875 381.60546875 C-520.13822257 390.87151426 -530.3501982 400.42158094 -539.2734375 410.9921875 C-541.11143453 413.12958676 -543.01782203 415.19658172 -544.93603516 417.26196289 C-549.66921725 422.36213925 -554.21128745 427.55977125 -558.57421875 432.984375 C-560.35359865 435.19642216 -562.14630553 437.39206839 -563.95703125 439.578125 C-617.63589156 504.57168747 -656.11366113 581.38867962 -725.1875 922.875 C-725.23047211 923.94081299 -725.27344421 925.00662598 -725.31771851 926.10473633 C-726.16724242 947.64684573 -726.29796051 969.19867895 -725.6875 990.75 C-725.65674377 991.84287323 -725.65674377 991.84287323 -725.62536621 992.95782471 C-723.03670197 1080.93276259 -710.0047903 1168.08776101 -645 1348 C-644.5270752 1348.98581055 -644.05415039 1349.97162109 -643.56689453 1350.98730469 C-619.13364737 1401.58849884 -587.07446178 1448.97813577 -549.23046875 1490.5234375 C-548.03898463 1491.84638134 -546.85289993 1493.17499213 -545.70727539 1494.5378418 C-539.88405239 1501.40181891 -533.46406462 1507.68635026 -527.09399414 1514.03637695 C-525.0673702 1516.05764268 -523.04614453 1518.08419574 -521.02539062 1520.11132812 C-514.85348077 1526.28670858 -508.68696104 1532.3775138 -502 1538 C-500.8425126 1539.02056451 -499.68756516 1540.04401688 -498.53515625 1541.0703125 C-490.09610923 1548.51631753 -481.36902519 1555.46569148 -472.36083984 1562.20874023 C-470.61469579 1563.53360672 -468.88271221 1564.87718324 -467.15869141 1566.23071289 C-459.26502755 1572.42530822 -451.11093932 1578.123083 -442.74414062 1583.65942383 C-440.63000078 1585.059189 -438.52175383 1586.46750185 -436.4140625 1587.87695312 C-363.05066168 1636.75173049 -279.37675091 1667.75668455 -73 1699 C-71.84290527 1699.07347656 -70.68581055 1699.14695312 -69.49365234 1699.22265625 C24.00725027 1704.86120306 119.98780494 1695.47302321 295 1653 C295.65677734 1652.78794922 296.31355469 1652.57589844 296.99023438 1652.35742188 C320.39851838 1644.77512201 343.42327947 1635.92458978 365.54296875 1625.109375 C368 1624 368 1624 370 1624 C372.87980613 1635.60297742 375.75424447 1647.2072801 378.625 1658.8125 C378.84430176 1659.69901623 379.06360352 1660.58553246 379.28955078 1661.49891281 C387.92537385 1696.41623905 396.41040602 1731.36914049 404.83837891 1766.3371582 C405.17859605 1767.74833137 405.17859605 1767.74833137 405.52568626 1769.18801308 C406.58593162 1773.58577834 407.64556932 1777.9836869 408.70346069 1782.38201904 C409.08354348 1783.95984215 409.46363955 1785.53766207 409.84375 1787.11547852 C410.02364786 1787.86472784 410.20354572 1788.61397717 410.38889503 1789.38593102 C411.28660484 1793.109853 412.2069376 1796.82602604 413.16796875 1800.53414917 C413.44864197 1801.62489573 413.44864197 1801.62489573 413.73498535 1802.73767757 C414.24607129 1804.71520274 414.76437202 1806.69085932 415.28320312 1808.66636658 C415.91914879 1811.62398231 416.38716278 1814.00370315 416 1817 C413.78484267 1818.61638231 411.78808521 1819.81712208 409.375 1821.0625 C397.02244014 1827.95239165 387.09072654 1837.20819183 378 1848 C343.35162218 1889.09282446 278.66695917 1891.25792503 228.74951172 1895.6171875 C178.56240866 1899.87934459 128.20500087 1901.65786571 77.86486816 1902.90429688 C75.37811013 1902.96587479 72.891373 1903.02830569 70.40466309 1903.09179688 C32.69410833 1904.04962661 -5.02404002 1904.12651049 -42.74478912 1904.1807785 C-46.496599 1904.18738397 -50.24838403 1904.19747361 -54.00018311 1904.20855713 C-93.33167938 1904.31674112 -132.61762435 1903.76320009 -171.8125 1900.1875 C-172.76240814 1900.10351959 -173.71231628 1900.01953918 -174.69100952 1899.93301392 C-249.02044133 1893.34307926 -322.82317146 1879.57189952 -393.8994751 1856.67456055 C-395.97731716 1856.00728434 -398.05734117 1855.34730718 -400.13818359 1854.68945312 C-451.50984765 1838.41703056 -502.20926702 1817.15373371 -549.14746094 1790.61181641 C-552.34404336 1788.8055996 -555.55126299 1787.01892691 -558.7578125 1785.23046875 C-572.9937141 1777.25454493 -586.84191721 1768.82796713 -600.40283203 1759.73876953 C-602.90573047 1758.0631122 -605.41774678 1756.40222887 -607.93359375 1754.74609375 C-631.22353511 1739.3840252 -653.70755748 1722.74742271 -674.91796875 1704.61328125 C-677.73635029 1702.20918687 -680.61171953 1699.88232006 -683.5 1697.5625 C-689.30507158 1692.83901381 -694.74964538 1687.76560677 -700.20629883 1682.65014648 C-701.44693878 1681.50879826 -702.70317324 1680.38425536 -703.97143555 1679.27368164 C-712.39834532 1671.86865628 -720.25881466 1663.8917564 -728.17797852 1655.95239258 C-730.68849074 1653.43650714 -733.20432064 1650.92602814 -735.72070312 1648.41601562 C-737.33886249 1646.79719563 -738.95671172 1645.17806555 -740.57421875 1643.55859375 C-741.31604904 1642.81878769 -742.05787933 1642.07898163 -742.82218933 1641.3167572 C-747.41523166 1636.70326462 -751.7559992 1631.93467056 -756 1627 C-757.45445517 1625.39231627 -758.91220895 1623.78760285 -760.375 1622.1875 C-764.27680286 1617.86388062 -767.98148498 1613.41257548 -771.640625 1608.8828125 C-773.65162896 1606.42565865 -775.70605221 1604.01561191 -777.78491211 1601.6159668 C-785.00074089 1593.2511793 -791.56011816 1584.41683719 -798.12109375 1575.53466797 C-799.88090266 1573.1606638 -801.6561302 1570.79925282 -803.4375 1568.44140625 C-827.90544022 1535.89777065 -848.78488343 1500.84602691 -868 1465 C-868.51288574 1464.04947754 -869.02577148 1463.09895508 -869.55419922 1462.11962891 C-910.37718978 1386.23644453 -937.67677849 1302.51653533 -976.75 1052.8125 C-976.80916595 1051.87557312 -976.86833191 1050.93864624 -976.92929077 1049.97332764 C-978.64435076 1022.29063774 -979.21026353 994.60350872 -979.1875 966.875 C-979.18709969 965.77195274 -979.18709969 965.77195274 -979.18669128 964.6466217 C-979.17509888 939.05596633 -978.76318651 913.5382676 -977 888 C-976.93447937 887.0502832 -976.86895874 886.10056641 -976.80145264 885.12207031 C-970.34576737 792.91421737 -953.77076303 702.11046433 -862 468 C-861.45698242 467.00307129 -860.91396484 466.00614258 -860.35449219 464.97900391 C-847.85997515 442.04753136 -834.39778131 419.92955019 -819.9375 398.1875 C-819.3945932 397.36987183 -818.8516864 396.55224365 -818.29232788 395.70983887 C-803.10774256 372.8780409 -786.84065706 350.93719323 -769.43554688 329.75146484 C-768.16412789 328.20024719 -766.9016989 326.64167066 -765.640625 325.08203125 C-756.5312727 313.82832412 -747.00119952 302.94509536 -737.12475586 292.36035156 C-735.17034505 290.26351913 -733.22632952 288.15820733 -731.29614258 286.0390625 C-724.24570971 278.31049036 -716.98115127 270.8248157 -709.57128906 263.44091797 C-707.7338424 261.60889005 -705.9018835 259.77149395 -704.0703125 257.93359375 C-698.74586619 252.606139 -693.4302553 247.33115146 -687.69091797 242.44580078 C-684.94081705 240.09435729 -682.32589224 237.60005526 -679.6875 235.125 C-674.79175582 230.56610585 -669.7535236 226.26002327 -664.53515625 222.0703125 C-662.18505214 220.15112116 -659.93139815 218.1664101 -657.6875 216.125 C-652.88648579 211.8100565 -647.82040923 207.87286362 -642.7265625 203.9140625 C-640.26243073 201.99665594 -637.82112413 200.05544077 -635.3984375 198.0859375 C-625.86385346 190.33756307 -616.02508349 183.09947547 -606 176 C-605.19900879 175.42991211 -604.39801758 174.85982422 -603.57275391 174.27246094 C-532.86401912 123.98882226 -454.94374688 85.3109312 -50.6875 0.4375 C-49.87373901 0.41665344 -49.05997803 0.39580688 -48.22155762 0.37432861 C-32.14490082 -0.02955464 -16.08194095 -0.19666043 0 0 Z " fill="#8AE770" transform="translate(1010,47)"/>
<path d="M0 0 C0.54543457 0.4424707 1.09086914 0.88494141 1.65283203 1.34082031 C15.37409634 12.55976244 28.1814377 24.93792186 39 39 C39.77214844 39.95519531 40.54429687 40.91039062 41.33984375 41.89453125 C59.63180278 64.86784472 73.26384312 91.37456534 83 119 C83.31662598 119.89219238 83.63325195 120.78438477 83.95947266 121.70361328 C93.8785021 150.08291476 100.05962349 180.64255801 100.203125 210.7734375 C100.21013931 211.76713852 100.21715363 212.76083954 100.22438049 213.78465271 C100.24180526 216.98148175 100.24823491 220.17812518 100.25 223.375 C100.25101212 225.01787491 100.25101212 225.01787491 100.25204468 226.69393921 C100.23513029 243.99482989 99.63828794 260.87409222 97 278 C96.82307617 279.16144531 96.64615234 280.32289063 96.46386719 281.51953125 C85.97623737 348.39402049 57.87811766 409.28313835 21.75 466.0625 C21.10071533 467.08504883 20.45143066 468.10759766 19.7824707 469.16113281 C15.42331773 475.95913143 10.79058734 482.5010143 6 489 C5.19375544 490.12985465 4.39090636 491.26215251 3.59375 492.3984375 C-14.70179078 518.40814286 -34.74835721 543.23312571 -55.52783203 567.28955078 C-57.0345489 569.0401409 -58.53209275 570.79820348 -60.02734375 572.55859375 C-65.74116723 579.2780942 -71.56548371 585.86476444 -77.5546875 592.33984375 C-79.55160793 594.51221246 -81.50828734 596.70539163 -83.4375 598.9375 C-87.96836408 604.15878146 -92.69697996 609.2001352 -97.39746094 614.26806641 C-99.00129801 616.00140281 -100.59920374 617.74001539 -102.1953125 619.48046875 C-106.81542534 624.51419443 -111.44167143 629.51500936 -116.32739258 634.29443359 C-117.97521396 635.97472554 -119.49102998 637.71614634 -121.01171875 639.51171875 C-126.18162962 645.45490397 -131.85161647 650.91000524 -137.45703125 656.43652344 C-138.89019406 657.85133713 -140.32013267 659.26935698 -141.75 660.6875 C-143.01070312 661.93080078 -143.01070312 661.93080078 -144.296875 663.19921875 C-146.36835556 665.34553603 -148.3255136 667.50846852 -150.26977539 669.76538086 C-154.29260086 674.40163736 -158.58914011 678.73305844 -162.93359375 683.06640625 C-164.18874535 684.32299294 -164.18874535 684.32299294 -165.46925354 685.60496521 C-167.22868104 687.36506935 -168.98935653 689.12392677 -170.7512207 690.8815918 C-173.42969411 693.55470972 -176.10278873 696.23312251 -178.77539062 698.91210938 C-180.49447115 700.63052903 -182.21386189 702.34863842 -183.93359375 704.06640625 C-184.72342148 704.85825821 -185.51324921 705.65011017 -186.32701111 706.46595764 C-190.45610838 710.57787515 -194.67212698 714.50529326 -199.08607483 718.30845642 C-202.28992728 721.14004886 -205.27935481 724.17613104 -208.28125 727.21875 C-208.93903442 727.88032104 -209.59681885 728.54189209 -210.27453613 729.22351074 C-212.35217274 731.31322735 -214.42650627 733.40617315 -216.5 735.5 C-219.2365815 738.263417 -221.97662263 741.02333722 -224.71875 743.78125 C-225.33045044 744.40124878 -225.94215088 745.02124756 -226.5723877 745.66003418 C-230.30472536 749.41311971 -234.1592452 752.95860875 -238.17944336 756.40209961 C-241.09509994 758.96116791 -243.79023695 761.72663535 -246.5 764.5 C-250.57064551 768.62214304 -254.69001328 772.57723816 -259.109375 776.328125 C-262.14239108 779.0102136 -264.93508434 781.92733249 -267.77734375 784.80859375 C-270.4270144 787.42101068 -273.21172803 789.83302621 -276.03515625 792.25390625 C-278.10820324 794.09615675 -280.05435802 796.02401662 -282 798 C-284.55990134 800.59982183 -287.1677954 803.06268398 -289.9375 805.4375 C-292.92801716 808.00665271 -295.73116684 810.69317256 -298.5 813.5 C-301.26883316 816.30682744 -304.07198284 818.99334729 -307.0625 821.5625 C-314.43765697 827.53292419 -314.43765697 827.53292419 -320 835 C-173.15 835 -26.3 835 125 835 C125 872.29 125 909.58 125 948 C-84.88 948 -294.76 948 -511 948 C-511 920.28 -511 892.56 -511 864 C-494 847 -494 847 -486 840 C-483.83902408 837.90376272 -481.70474723 835.800665 -479.59375 833.65625 C-479.02474976 833.08346313 -478.45574951 832.51067627 -477.86950684 831.92053223 C-476.07717018 830.11614749 -474.28815684 828.3085264 -472.5 826.5 C-459.33466737 813.18469613 -459.33466737 813.18469613 -453.15039062 807.92773438 C-447.69878257 803.040598 -442.64595685 797.70457638 -437.5 792.5 C-424.1313623 778.97907513 -424.1313623 778.97907513 -417.93164062 773.70898438 C-413.75715763 770.01568547 -409.90976879 765.96900771 -406 762 C-400.78795543 756.70898505 -395.56873161 751.54211526 -389.9296875 746.70703125 C-386.45813684 743.63604413 -383.24417461 740.30753739 -380 737 C-376.1480498 733.07281639 -372.30302286 729.20736097 -368.125 725.625 C-363.15556273 721.34468391 -358.60016418 716.66986364 -354 712 C-352.29418982 710.26834421 -350.58589134 708.53913574 -348.875 706.8125 C-348.12992188 706.05582031 -347.38484375 705.29914062 -346.6171875 704.51953125 C-344.55057858 702.53003461 -342.4599958 700.65509099 -340.28710938 698.78710938 C-335.47690686 694.60969526 -331.01189365 690.11916749 -326.53125 685.59375 C-325.65150513 684.71021851 -324.77176025 683.82668701 -323.86535645 682.91638184 C-321.07445494 680.11334867 -318.28670768 677.30720084 -315.5 674.5 C-311.82601262 670.7989945 -308.14834398 667.10168178 -304.46875 663.40625 C-303.63831177 662.56751343 -302.80787354 661.72877686 -301.95227051 660.86462402 C-297.69025919 656.58489125 -293.36544394 652.45825376 -288.76844788 648.53892517 C-285.68530596 645.85593702 -282.81643737 642.9609998 -279.9375 640.0625 C-279.36451172 639.49337891 -278.79152344 638.92425781 -278.20117188 638.33789062 C-275.26671673 635.39683378 -272.45158931 632.39929634 -269.74829102 629.24389648 C-266.18346048 625.15288238 -262.42297889 621.31056934 -258.5625 617.5 C-257.87873291 616.82001953 -257.19496582 616.14003906 -256.49047852 615.43945312 C-253.60262227 612.56774857 -250.70876925 609.70211562 -247.81542969 606.8359375 C-245.68734275 604.72607213 -243.56237083 602.61310355 -241.4375 600.5 C-240.47469116 599.54963867 -240.47469116 599.54963867 -239.49243164 598.58007812 C-235.66473407 594.77285487 -232.0413734 590.84674151 -228.52612305 586.7487793 C-225.73603539 583.55162718 -222.66296094 580.6455146 -219.625 577.6875 C-216.92699678 574.92525861 -214.4108158 572.05322472 -211.8828125 569.13671875 C-208.0301767 564.76453663 -203.9758192 560.57801675 -199.9609375 556.35546875 C-196.0637482 552.24009704 -192.26295733 548.06396049 -188.54980469 543.78173828 C-186.60975159 541.55134958 -184.61949697 539.36921987 -182.625 537.1875 C-178.67628555 532.81714316 -174.9537279 528.29696921 -171.25 523.71875 C-169.06498431 521.07852271 -166.80828609 518.5327028 -164.5 516 C-160.6849355 511.80342905 -157.05735125 507.49222517 -153.4921875 503.08203125 C-151.69606391 500.86080631 -149.88991464 498.65099623 -148.0703125 496.44921875 C-139.3679988 485.8863731 -131.11860172 475.01607634 -123 464 C-122.43780762 463.23929199 -121.87561523 462.47858398 -121.29638672 461.69482422 C-101.52522988 434.87722004 -83.91047191 406.80989903 -69 377 C-68.39381836 375.80745605 -68.39381836 375.80745605 -67.77539062 374.59082031 C-35.39142418 310.66367716 -25.88897239 233.94955226 -47 165 C-53.96820703 143.86556762 -64.4582793 123.90342351 -79 107 C-79.80953125 106.04480469 -80.6190625 105.08960938 -81.453125 104.10546875 C-88.1911794 96.34197649 -95.66412418 89.99155539 -104 84 C-105.05445312 83.24074219 -106.10890625 82.48148438 -107.1953125 81.69921875 C-130.12849179 66.1433393 -155.9680979 57.90595513 -183 53 C-184.34626465 52.75008301 -184.34626465 52.75008301 -185.71972656 52.49511719 C-247.78010162 41.63061514 -332.13490701 47.17139499 -385.265625 84.00390625 C-392.37163533 89.19129379 -399.01626249 94.80071319 -405.51171875 100.73046875 C-407.12763363 102.20432518 -408.75471234 103.6660675 -410.39453125 105.11328125 C-415.28178785 109.43206858 -419.93066973 113.91385959 -424.5 118.5625 C-429.69263766 123.84020006 -435.05991966 128.56170069 -441 133 C-444.23530971 130.33569876 -445.58495283 126.89002935 -447.1953125 123.1328125 C-447.50008514 122.43835022 -447.80485779 121.74388794 -448.11886597 121.02838135 C-448.77993114 119.52075299 -449.43794588 118.01178423 -450.09326172 116.50164795 C-451.86222369 112.42677749 -453.65455138 108.36220151 -455.4453125 104.296875 C-455.81674377 103.45236786 -456.18817505 102.60786072 -456.57086182 101.73776245 C-461.59577131 90.33900433 -466.84125735 79.04154316 -472.0708313 67.73568726 C-473.05048367 65.61198663 -474.0237915 63.48547262 -474.99609375 61.35839844 C-476.42012022 58.24445362 -477.87771389 55.1481781 -479.34765625 52.05566406 C-480.10725933 50.42535772 -480.86638671 48.79482964 -481.625 47.1640625 C-481.99246338 46.40612396 -482.35992676 45.64818542 -482.73852539 44.86727905 C-485.15689983 39.60483471 -485.15689983 39.60483471 -484.39086914 36.65185547 C-482.06018588 33.8838367 -479.28000439 31.71023424 -476.4375 29.5 C-475.76984619 28.97519043 -475.10219238 28.45038086 -474.41430664 27.90966797 C-439.08940851 0.40967177 -399.14860292 -21.88912221 -357 -37 C-355.87819336 -37.4031543 -354.75638672 -37.80630859 -353.60058594 -38.22167969 C-280.3240469 -64.24755391 -199.37862476 -72.40796117 0 0 Z " fill="#8FE877" transform="translate(3978,1543)"/>
</svg>
