<?xml version="1.0" encoding="UTF-8"?>
<svg id="svg2" xmlns="http://www.w3.org/2000/svg" version="1.1" xmlns:cc="http://creativecommons.org/ns#" xmlns:dc="http://purl.org/dc/elements/1.1/" xmlns:rdf="http://www.w3.org/1999/02/22-rdf-syntax-ns#" xmlns:svg="http://www.w3.org/2000/svg" xmlns:xlink="http://www.w3.org/1999/xlink" viewBox="0 0 242.78 29.76">
  <!-- Generator: Adobe Illustrator 29.6.0, SVG Export Plug-In . SVG Version: 2.1.1 Build 207)  -->
  <defs>
    <style>
      .st0 {
        fill: #fff;
      }

      .st1 {
        isolation: isolate;
      }

      .st2 {
        fill: url(#_Безымянный_градиент_2);
      }

      .st3 {
        fill: url(#_Безымянный_градиент);
      }
    </style>
    <linearGradient id="_Безымянный_градиент" data-name="Безымянный градиент" x1="26.7" y1="678.45" x2="26.7" y2="695.38" gradientTransform="translate(0 704.77) scale(1 -1)" gradientUnits="userSpaceOnUse">
      <stop offset="0" stop-color="#ebf9a3"/>
      <stop offset="0" stop-color="#ebf9a3"/>
      <stop offset=".3" stop-color="#9ef345"/>
      <stop offset=".4" stop-color="#9ef345"/>
      <stop offset=".5" stop-color="#3ac178"/>
      <stop offset=".7" stop-color="#3ac178"/>
      <stop offset=".9" stop-color="#33f7e7"/>
      <stop offset="1" stop-color="#33f7e7"/>
    </linearGradient>
    <linearGradient id="_Безымянный_градиент_2" data-name="Безымянный градиент 2" x1="26.35" y1="705" x2="26.51" y2="692.24" gradientTransform="translate(0 704.77) scale(1 -1)" gradientUnits="userSpaceOnUse">
      <stop offset="0" stop-color="#ebf9a3"/>
      <stop offset="0" stop-color="#ebf9a3"/>
      <stop offset=".3" stop-color="#9ef345"/>
      <stop offset=".4" stop-color="#9ef345"/>
      <stop offset=".5" stop-color="#3ac178"/>
      <stop offset=".7" stop-color="#3ac178"/>
      <stop offset=".9" stop-color="#33f7e7"/>
      <stop offset="1" stop-color="#33f7e7"/>
    </linearGradient>
  </defs>
  <g class="st1">
    <g class="st1">
      <g class="st1">
        <path class="st0" d="M57.02,22.74v-3.04h3.04v3.04h-3.04Z"/>
        <path class="st0" d="M63.75,15.75l2.71-.24c.13,1.09.43,1.98.9,2.68.47.7,1.2,1.26,2.19,1.69s2.1.64,3.34.64c1.1,0,2.07-.16,2.91-.49.84-.33,1.47-.77,1.88-1.34.41-.57.62-1.19.62-1.86s-.2-1.28-.59-1.79c-.4-.51-1.05-.94-1.96-1.28-.58-.23-1.87-.58-3.87-1.06-2-.48-3.39-.93-4.2-1.36-1.04-.54-1.81-1.22-2.32-2.02-.51-.81-.76-1.71-.76-2.71,0-1.1.31-2.12.93-3.08.62-.95,1.53-1.68,2.73-2.17s2.52-.74,3.99-.74c1.61,0,3.03.26,4.26.78,1.23.52,2.18,1.28,2.84,2.29s1.02,2.15,1.07,3.42l-2.76.21c-.15-1.37-.65-2.41-1.5-3.11-.85-.7-2.12-1.05-3.79-1.05s-3.01.32-3.8.96c-.8.64-1.19,1.41-1.19,2.3,0,.78.28,1.42.84,1.93.55.5,2,1.02,4.34,1.55,2.34.53,3.94.99,4.81,1.39,1.27.58,2.2,1.32,2.8,2.22.6.89.9,1.92.9,3.09s-.33,2.25-.99,3.27c-.66,1.02-1.61,1.82-2.85,2.39-1.24.57-2.64.85-4.19.85-1.97,0-3.61-.29-4.94-.86s-2.37-1.44-3.13-2.59-1.15-2.45-1.19-3.91Z"/>
        <path class="st0" d="M94.66,22.74v-2.31c-1.23,1.78-2.89,2.67-5,2.67-.93,0-1.8-.18-2.6-.53-.81-.36-1.4-.8-1.79-1.34-.39-.54-.66-1.2-.82-1.98-.11-.52-.16-1.35-.16-2.49V6.99h2.67v8.73c0,1.39.05,2.33.16,2.82.17.7.52,1.25,1.07,1.65.54.4,1.22.6,2.02.6s1.55-.2,2.25-.62c.7-.41,1.2-.97,1.49-1.67.29-.71.44-1.73.44-3.08V6.99h2.67v15.74h-2.39Z"/>
        <path class="st0" d="M100.92,28.77V6.99h2.43v2.05c.57-.8,1.22-1.4,1.94-1.8.72-.4,1.6-.6,2.62-.6,1.34,0,2.53.35,3.56,1.04,1.03.69,1.8,1.67,2.33,2.93s.79,2.64.79,4.14c0,1.61-.29,3.06-.87,4.35-.58,1.29-1.42,2.28-2.52,2.96-1.1.69-2.26,1.03-3.48,1.03-.89,0-1.69-.19-2.39-.56-.71-.38-1.29-.85-1.74-1.42v7.66h-2.67ZM103.34,14.95c0,2.03.41,3.52,1.23,4.49s1.81,1.45,2.98,1.45,2.2-.5,3.05-1.5c.85-1,1.27-2.56,1.27-4.66s-.41-3.51-1.24-4.51-1.81-1.5-2.96-1.5-2.14.53-3.02,1.59-1.31,2.61-1.31,4.63Z"/>
        <path class="st0" d="M117.5,28.77V6.99h2.43v2.05c.57-.8,1.22-1.4,1.94-1.8.72-.4,1.6-.6,2.62-.6,1.34,0,2.53.35,3.56,1.04,1.03.69,1.8,1.67,2.33,2.93.52,1.26.79,2.64.79,4.14,0,1.61-.29,3.06-.87,4.35-.58,1.29-1.42,2.28-2.52,2.96-1.1.69-2.26,1.03-3.48,1.03-.89,0-1.69-.19-2.39-.56-.71-.38-1.29-.85-1.74-1.42v7.66h-2.67ZM119.92,14.95c0,2.03.41,3.52,1.23,4.49s1.81,1.45,2.98,1.45,2.2-.5,3.05-1.5c.85-1,1.27-2.56,1.27-4.66s-.41-3.51-1.24-4.51-1.81-1.5-2.96-1.5-2.14.53-3.02,1.59c-.87,1.06-1.31,2.61-1.31,4.63Z"/>
        <path class="st0" d="M133.09,14.86c0-2.92.81-5.07,2.43-6.48,1.35-1.17,3-1.75,4.95-1.75,2.16,0,3.93.71,5.31,2.13,1.37,1.42,2.06,3.38,2.06,5.88,0,2.03-.3,3.62-.91,4.78-.61,1.16-1.49,2.06-2.65,2.71-1.16.64-2.43.96-3.8.96-2.2,0-3.99-.71-5.34-2.12-1.36-1.41-2.04-3.45-2.04-6.11ZM135.83,14.86c0,2.02.44,3.53,1.32,4.53.88,1,1.99,1.5,3.32,1.5s2.43-.5,3.31-1.51c.88-1.01,1.32-2.54,1.32-4.61,0-1.95-.44-3.42-1.33-4.42-.88-1-1.98-1.5-3.3-1.5s-2.44.5-3.32,1.5c-.88,1-1.32,2.5-1.32,4.52Z"/>
        <path class="st0" d="M150.63,22.74V6.99h2.4v2.39c.61-1.12,1.18-1.85,1.7-2.21.52-.36,1.09-.53,1.71-.53.9,0,1.81.29,2.74.86l-.92,2.48c-.65-.39-1.3-.58-1.96-.58-.58,0-1.11.18-1.57.53s-.8.84-.99,1.46c-.3.95-.44,1.99-.44,3.11v8.24h-2.67Z"/>
        <path class="st0" d="M166.3,20.35l.39,2.36c-.75.16-1.42.24-2.02.24-.97,0-1.72-.15-2.25-.46-.53-.31-.91-.71-1.13-1.21-.22-.5-.33-1.55-.33-3.15v-9.06h-1.96v-2.08h1.96v-3.9l2.65-1.6v5.5h2.68v2.08h-2.68v9.21c0,.76.05,1.25.14,1.47.09.22.25.39.46.52.21.13.52.19.91.19.3,0,.69-.03,1.17-.1Z"/>
        <path class="st0" d="M181.83,29.13c-1.47-1.86-2.72-4.03-3.74-6.52-1.02-2.49-1.53-5.07-1.53-7.74,0-2.35.38-4.6,1.14-6.76.89-2.5,2.26-4.99,4.12-7.47h1.91c-1.2,2.06-1.99,3.52-2.37,4.4-.6,1.36-1.08,2.79-1.42,4.27-.43,1.85-.64,3.71-.64,5.57,0,4.75,1.48,9.5,4.43,14.25h-1.91Z"/>
        <path class="st0" d="M236.67,29.13h-1.91c2.95-4.74,4.43-9.49,4.43-14.25,0-1.86-.21-3.7-.64-5.53-.34-1.48-.81-2.91-1.41-4.27-.39-.89-1.18-2.37-2.39-4.45h1.91c1.86,2.48,3.23,4.97,4.12,7.47.76,2.16,1.14,4.41,1.14,6.76,0,2.67-.51,5.25-1.53,7.74-1.02,2.49-2.27,4.67-3.73,6.52Z"/>
      </g>
    </g>
  </g>
  <g>
    <path class="st3" d="M43.47,19.53v-.06l1.57-1.48c2.57-2.48,4.57-4.56,5.74-6.64h-2.82c-1.18,1.82-3.22,3.87-6.18,6.7l-2.12,2.06v1.66h12.76v-2.25h-8.95,0ZM34.31,11.36c0,4.69-2.41,8.57-6.64,8.57s-6.64-3.97-6.64-8.43,0-.1,0-.15h-2.83v.21c0,6.27,3.82,10.55,9.32,10.55s9.56-3.75,9.62-10.76h-2.83ZM16.16,18.98c-1.08.52-2.74.86-4.4.86-5.01,0-7.94-3.23-7.94-8.33s0-.1,0-.15H.99v.24c0,6.83,4.37,10.52,10.21,10.52s4.52-.49,5.47-.98l-.52-2.15h.01Z"/>
    <path class="st2" d="M21.02,11.4c0-4.69,2.41-8.57,6.64-8.57s6.64,3.97,6.64,8.43,0,.1,0,.15h2.83v-.21c0-6.27-3.82-10.55-9.32-10.55s-9.56,3.75-9.62,10.76h2.83ZM51.93,7.26c0,1.44-.41,2.77-1.15,4.1h-2.82c.85-1.31,1.26-2.49,1.26-3.76,0-2.03-.95-3.9-3.94-3.9s-3.32.92-4.24,1.69l-.86-1.91c1.35-1.14,3.35-2.03,5.63-2.03,4.31,0,6.12,2.95,6.12,5.81h0ZM11.82.71c2.55,0,4.21.55,4.92.92l-.67,2.18c-.98-.49-2.43-.86-4.15-.86C7.11,2.95,3.89,6,3.83,11.35H1C1.1,4.96,5.47.7,11.82.7h0Z"/>
  </g>
  <g>
    <path class="st0" d="M198.5,19.81c-1.08.52-2.74.86-4.4.86-5.01,0-7.94-3.23-7.94-8.33v-.15h-2.83v.24c0,6.83,4.37,10.52,10.21,10.52s4.52-.49,5.47-.98l-.52-2.15h0Z"/>
    <path class="st0" d="M225.81,20.35v-.05l1.57-1.48c2.57-2.48,4.56-4.55,5.73-6.63h0c.74-1.33,1.15-2.66,1.15-4.1h0c0-2.86-1.81-5.81-6.12-5.81-2.28,0-4.28.89-5.63,2.03l.86,1.91c.92-.77,1.25-1.69,4.24-1.69s3.94,1.87,3.94,3.9c0,1.27-.41,2.44-1.25,3.75h0c-1.18,1.82-3.22,3.87-6.18,6.7l-2.12,2.06v1.66h12.76v-2.25h-8.95Z"/>
    <path class="st0" d="M219.47,12.03c0-6.27-3.82-10.55-9.32-10.55s-9.56,3.75-9.62,10.76h0v.15c0,6.27,3.82,10.55,9.32,10.55s9.56-3.75,9.62-10.76h0v-.15h0ZM210.01,20.76c-4.23,0-6.64-3.97-6.64-8.43v-.15h0c.03-4.67,2.42-8.52,6.64-8.52s6.64,3.97,6.64,8.43v.15h0c-.03,4.67-2.42,8.52-6.64,8.52Z"/>
    <path class="st0" d="M194.17,1.53c-6.35,0-10.72,4.26-10.82,10.65h2.83c.06-5.35,3.28-8.4,8.09-8.4,1.72,0,3.17.37,4.15.86l.67-2.18c-.71-.37-2.37-.92-4.92-.92h0Z"/>
  </g>
</svg>