<?xml version="1.0" encoding="UTF-8"?>
<svg id="svg2" xmlns="http://www.w3.org/2000/svg" version="1.1" xmlns:cc="http://creativecommons.org/ns#" xmlns:dc="http://purl.org/dc/elements/1.1/" xmlns:rdf="http://www.w3.org/1999/02/22-rdf-syntax-ns#" xmlns:svg="http://www.w3.org/2000/svg" xmlns:xlink="http://www.w3.org/1999/xlink" viewBox="0 0 926.34 94.35">
  <!-- Generator: Adobe Illustrator 29.6.0, SVG Export Plug-In . SVG Version: 2.1.1 Build 207)  -->
  <defs>
    <style>
      .st0 {
        fill: url(#_Безымянный_градиент);
      }

      .st1 {
        fill: url(#_Безымянный_градиент1);
      }
    </style>
    <linearGradient id="_Безымянный_градиент" data-name="Безымянный градиент" x1="461.19" y1="74.27" x2="461.19" y2="46.79" gradientUnits="userSpaceOnUse">
      <stop offset="0" stop-color="#ebf9a3"/>
      <stop offset="0" stop-color="#ebf9a3"/>
      <stop offset=".3" stop-color="#9ef345"/>
      <stop offset=".4" stop-color="#9ef345"/>
      <stop offset=".5" stop-color="#3ac178"/>
      <stop offset=".7" stop-color="#3ac178"/>
      <stop offset=".9" stop-color="#33f7e7"/>
      <stop offset="1" stop-color="#33f7e7"/>
    </linearGradient>
    <linearGradient id="_Безымянный_градиент1" data-name="Безымянный градиент" x1="462.69" y1="19.54" x2="462.69" y2="48.1" xlink:href="#_Безымянный_градиент"/>
  </defs>
  <path class="st0" d="M25.11,64.8c-1.56.23-2.81.33-3.79.33-1.28,0-2.25-.2-2.94-.61-.67-.41-1.18-.97-1.48-1.66-.28-.69-.43-2.28-.43-4.73v-11.56H7.89v11.08c0,5.17.36,8.54,1.05,10.16.72,1.61,1.92,2.92,3.63,3.89,1.74,1,4.14,1.48,7.26,1.48,1.92,0,4.09-.26,6.5-.77l-1.23-7.6ZM35.95,72.5v-9.79h9.8v9.79h-9.8ZM120.9,46.56v25.94h8.54v-25.94h-8.54ZM90.85,72.5h8.59v-25.94h-8.59v25.94ZM60.69,72.5h8.62v-25.94h-8.62v25.94ZM186.13,47.05c0-.15,0-.33-.03-.49h-46.73c-.03.33-.03.67-.03,1,0,8.26,2.17,14.66,6.52,19.24,4.35,4.58,10.23,6.86,17.65,6.86,5.91,0,10.74-1.43,14.53-4.3s6.39-6.91,7.78-12.1l-8.88-1.1c-1.3,3.63-3.07,6.29-5.3,7.93-2.23,1.66-4.94,2.51-8.08,2.51-4.25,0-7.78-1.48-10.62-4.45-2.84-2.97-4.4-7.24-4.73-12.82h37.86c.03-1.02.05-1.77.05-2.28ZM197.8,46.56l-7.6,27.14h6.91l7.6-27.14h-6.91ZM247.34,46.56h-11.02l-18.24,25.94h10.44l13.33-20,2.76,4.25,10.41,15.76h10.56l-18.24-25.94ZM264.82,91.95v-6.21h57v6.21h-57ZM360.58,46.56c0,6.47-1.36,11.23-4.02,14.25-2.69,3.04-5.99,4.58-9.95,4.58s-7.29-1.53-9.92-4.58c-2.61-3.02-3.91-7.75-3.96-14.25h-8.85v.28c0,7.03,1.92,13.07,5.73,18.11,3.84,5.04,9.23,7.55,16.19,7.55,5.63,0,10.31-2.2,14.07-6.63.03,5.6-.18,9.29-.64,11.02-.77,2.86-2.23,5.09-4.4,6.7-2.15,1.59-5.22,2.38-9.21,2.38-3.71,0-6.63-.79-8.75-2.38-1.59-1.2-2.56-3.07-2.92-5.65l-8.36-1.23c-.13,5.47,1.69,9.57,5.4,12.3,3.73,2.71,8.62,4.07,14.68,4.07,5.09,0,9.39-.95,12.87-2.86,3.5-1.92,6.04-4.5,7.65-7.8,1.61-3.3,2.4-8.9,2.4-16.81v-19.06h-8.01ZM381.51,46.56v25.94h8.59v-25.94h-8.59ZM458.09,47.05c0-.15,0-.33-.03-.49h-46.73c-.03.33-.03.67-.03,1,0,8.26,2.17,14.66,6.52,19.24,4.35,4.58,10.23,6.86,17.65,6.86,5.91,0,10.74-1.43,14.53-4.3,3.81-2.86,6.39-6.91,7.8-12.1l-8.9-1.1c-1.3,3.63-3.07,6.29-5.3,7.93-2.23,1.66-4.91,2.51-8.08,2.51-4.22,0-7.75-1.48-10.59-4.45-2.84-2.97-4.43-7.24-4.73-12.82h37.83c.03-1.02.05-1.77.05-2.28ZM512.53,47.05c0-.15,0-.33-.03-.49h-46.73c-.03.33-.03.67-.03,1,0,8.26,2.17,14.66,6.52,19.24,4.35,4.58,10.23,6.86,17.65,6.86,5.88,0,10.74-1.43,14.53-4.3,3.79-2.86,6.39-6.91,7.78-12.1l-8.88-1.1c-1.3,3.63-3.07,6.29-5.3,7.93-2.25,1.66-4.94,2.51-8.08,2.51-4.25,0-7.78-1.48-10.62-4.45-2.84-2.97-4.4-7.24-4.73-12.82h37.86c.03-1.02.05-1.77.05-2.28ZM555.66,46.56v25.94h8.62v-25.94h-8.62ZM523.04,72.5h8.59v-25.94h-8.59v25.94ZM569.52,91.95v-6.21h57v6.21h-57ZM675.78,47.05c0-.15,0-.33-.03-.49h-46.71c-.03.33-.03.67-.03,1,0,8.26,2.17,14.66,6.52,19.24,4.35,4.58,10.23,6.86,17.65,6.86,5.88,0,10.72-1.43,14.53-4.3,3.79-2.86,6.37-6.91,7.78-12.1l-8.88-1.1c-1.3,3.63-3.1,6.29-5.32,7.93-2.23,1.66-4.91,2.51-8.06,2.51-4.25,0-7.78-1.48-10.62-4.45-2.84-2.97-4.43-7.24-4.73-12.82h37.83c.05-1.02.05-1.77.05-2.28ZM718.93,46.56v25.94h8.59v-25.94h-8.59ZM686.29,72.5h8.59v-25.94h-8.59v25.94ZM784.62,47.05c0-.15,0-.33-.03-.49h-46.71c-.03.33-.03.67-.03,1,0,8.26,2.17,14.66,6.52,19.24,4.35,4.58,10.23,6.86,17.65,6.86,5.88,0,10.74-1.43,14.53-4.3,3.79-2.86,6.37-6.91,7.78-12.1l-8.88-1.1c-1.3,3.63-3.07,6.29-5.3,7.93-2.25,1.66-4.94,2.51-8.08,2.51-4.25,0-7.78-1.48-10.62-4.45-2.84-2.97-4.4-7.24-4.73-12.82h37.86c.03-1.02.03-1.77.03-2.28ZM795.06,46.56v25.94h8.59v-25.94h-8.59ZM861.13,46.56c0,6.47-1.33,11.23-4.02,14.25-2.66,3.04-5.99,4.58-9.92,4.58s-7.32-1.53-9.95-4.58c-2.58-3.02-3.91-7.75-3.96-14.25h-8.83v.28c0,7.03,1.89,13.07,5.73,18.11,3.81,5.04,9.21,7.55,16.19,7.55,5.6,0,10.28-2.2,14.04-6.63.03,5.6-.18,9.29-.61,11.02-.77,2.86-2.23,5.09-4.4,6.7-2.17,1.59-5.24,2.38-9.23,2.38-3.68,0-6.6-.79-8.72-2.38-1.61-1.2-2.58-3.07-2.92-5.65l-8.36-1.23c-.13,5.47,1.66,9.57,5.4,12.3,3.73,2.71,8.62,4.07,14.66,4.07,5.12,0,9.39-.95,12.89-2.86,3.48-1.92,6.04-4.5,7.65-7.8,1.59-3.3,2.4-8.9,2.4-16.81v-19.06h-8.03ZM906.1,46.56l-1.77,4.78c-1.38,3.76-2.56,7.6-3.56,11.56-1.07-4.12-2.3-8.03-3.66-11.77l-1.64-4.58h-8.82l9.87,26.04c-.36.92-.59,1.61-.77,2.1-1.2,3.4-2.07,5.55-2.61,6.39-.74,1.15-1.69,2.05-2.84,2.69s-2.66.95-4.58.95c-1.41,0-3.04-.26-4.91-.74l.95,8.06c2.05.72,3.89,1.05,5.55,1.05,2.74,0,5.09-.67,7.06-1.97,1.97-1.33,3.73-3.4,5.27-6.24,1.13-2.1,2.74-5.93,4.81-11.51l10.03-26.81h-8.39Z"/>
  <path class="st1" d="M25.11,21.75v6.7h-8.65v18.11H7.89v-18.11H1.6v-6.7h6.29v-12.56l8.57-5.17v17.73h8.65ZM125.4,24.79c-2.71-2.79-6.6-4.17-11.61-4.17-6.45,0-11.66,2.94-15.68,8.88-1-2.81-2.69-4.99-5.09-6.55-2.4-1.56-5.47-2.33-9.23-2.33-3.38,0-6.39.74-9.03,2.25-2.66,1.53-4.78,3.53-6.37,6.01v-7.14h-7.7v24.81h8.62v-.38c0-4.63.46-8.16,1.38-10.62.92-2.46,2.4-4.3,4.45-5.58,2.07-1.28,4.3-1.92,6.73-1.92,3.17,0,5.47.95,6.88,2.86,1.41,1.92,2.1,4.78,2.1,8.59v7.03h8.59v-3.53c0-5.24,1.18-9.03,3.56-11.41,2.35-2.38,5.3-3.56,8.88-3.56,1.97,0,3.68.46,5.17,1.38,1.46.92,2.48,2.15,3.02,3.66.56,1.51.84,3.99.84,7.44v6.01h8.54v-8.9c0-5.78-1.36-10.08-4.04-12.87ZM186.11,46.56h-46.73c.15-8.06,2.35-14.35,6.57-18.88,4.4-4.71,10.1-7.06,17.09-7.06s12.33,2.3,16.65,6.91c4.22,4.53,6.37,10.87,6.42,19.03ZM177.05,42.26c-.38-4.27-1.46-7.47-3.25-9.62-2.74-3.3-6.29-4.96-10.67-4.96-3.94,0-7.26,1.33-9.95,3.96-2.69,2.63-4.2,6.19-4.48,10.62h28.34ZM210.48,1.26l-12.69,45.3h6.91L217.36,1.26h-6.88ZM264.25,21.75h-10.28l-8.54,12c-1.18,1.64-2.48,3.5-3.86,5.6-.9-1.53-2.07-3.43-3.56-5.68l-7.78-11.92h-10.74l17.14,24.38-.31.43h11.02l-.64-.92,17.55-23.89ZM360.66,21.75v6.14c-3.89-4.86-8.83-7.26-14.81-7.26-4.48,0-8.39,1.1-11.72,3.33-3.35,2.25-5.88,5.4-7.62,9.49-1.74,4.02-2.61,8.39-2.63,13.12h8.85v-.33c0-6.11,1.33-10.72,4.02-13.84,2.66-3.1,5.91-4.66,9.75-4.66s7.19,1.59,9.95,4.73,4.14,7.83,4.14,14.04v.05h8.01v-24.81h-7.93ZM400.23,20.62c-2.02,0-3.84.56-5.53,1.71-1.66,1.15-3.5,3.5-5.47,7.11v-7.7h-7.73v24.81h8.59v-.61c0-3.63.49-6.98,1.43-10.05.64-2,1.71-3.56,3.2-4.71,1.51-1.13,3.2-1.69,5.06-1.69,2.1,0,4.2.61,6.32,1.87l2.94-7.98c-2.99-1.84-5.93-2.76-8.83-2.76ZM458.07,46.56h-46.73c.15-8.06,2.35-14.35,6.57-18.88,4.4-4.71,10.1-7.06,17.11-7.06s12.33,2.3,16.63,6.91c4.22,4.53,6.37,10.87,6.42,19.03ZM449.01,42.26c-.38-4.27-1.46-7.47-3.25-9.62-2.74-3.3-6.29-4.96-10.64-4.96-3.96,0-7.29,1.33-9.98,3.96-2.69,2.63-4.17,6.19-4.48,10.62h28.34ZM512.5,46.56h-46.73c.15-8.06,2.35-14.35,6.57-18.88,4.37-4.71,10.08-7.06,17.09-7.06s12.33,2.3,16.63,6.91c4.25,4.53,6.39,10.87,6.45,19.03ZM503.45,42.26c-.38-4.27-1.48-7.47-3.25-9.62-2.74-3.3-6.29-4.96-10.67-4.96-3.94,0-7.26,1.33-9.95,3.96-2.71,2.63-4.2,6.19-4.48,10.62h28.34ZM563.79,32.95c-.51-2.46-1.41-4.58-2.69-6.37s-3.2-3.22-5.76-4.32-5.37-1.64-8.42-1.64c-7.06,0-12.43,2.79-16.17,8.36v-7.24h-7.73v24.81h8.59v-1.77c0-6.5,1.33-10.92,3.99-13.25,2.66-2.33,5.81-3.48,9.49-3.48,2.28,0,4.27.51,5.99,1.56,1.71,1.02,2.89,2.4,3.56,4.14s1,4.37,1,7.88v4.91h8.62v-5.27c0-3.96-.18-6.75-.49-8.34ZM675.75,46.56h-46.71c.15-8.06,2.35-14.35,6.55-18.88,4.4-4.71,10.1-7.06,17.11-7.06s12.33,2.3,16.63,6.91c4.22,4.53,6.37,10.87,6.42,19.03ZM666.7,42.26c-.38-4.27-1.46-7.47-3.25-9.62-2.74-3.3-6.29-4.96-10.64-4.96-3.96,0-7.26,1.33-9.98,3.96-2.69,2.63-4.17,6.19-4.45,10.62h28.32ZM727.07,32.95c-.51-2.46-1.41-4.58-2.69-6.37s-3.2-3.22-5.76-4.32-5.37-1.64-8.44-1.64c-7.03,0-12.41,2.79-16.14,8.36v-7.24h-7.75v24.81h8.59v-1.77c0-6.5,1.36-10.92,4.02-13.25,2.63-2.33,5.81-3.48,9.46-3.48,2.3,0,4.3.51,6.01,1.56,1.69,1.02,2.89,2.4,3.56,4.14s1,4.37,1,7.88v4.91h8.59v-5.27c0-3.96-.15-6.75-.46-8.34ZM784.59,46.56h-46.71c.15-8.06,2.35-14.35,6.57-18.88,4.37-4.71,10.08-7.06,17.09-7.06s12.33,2.3,16.63,6.91c4.22,4.53,6.37,10.87,6.42,19.03ZM775.57,42.26c-.38-4.27-1.48-7.47-3.25-9.62-2.74-3.3-6.29-4.96-10.67-4.96-3.94,0-7.26,1.33-9.95,3.96-2.71,2.63-4.2,6.19-4.48,10.62h28.34ZM813.78,20.62c-2,0-3.84.56-5.53,1.71-1.66,1.15-3.5,3.5-5.47,7.11v-7.7h-7.72v24.81h8.59v-.61c0-3.63.49-6.98,1.43-10.05.64-2,1.71-3.56,3.2-4.71,1.51-1.13,3.2-1.69,5.06-1.69,2.1,0,4.2.61,6.32,1.87l2.97-7.98c-3.02-1.84-5.96-2.76-8.85-2.76ZM861.23,21.75v6.14c-3.89-4.86-8.83-7.26-14.81-7.26-4.5,0-8.42,1.1-11.74,3.33-3.33,2.25-5.86,5.4-7.62,9.49-1.71,4.02-2.58,8.39-2.61,13.12h8.83v-.33c0-6.11,1.33-10.72,4.02-13.84,2.69-3.1,5.93-4.66,9.75-4.66s7.21,1.59,9.95,4.73c2.76,3.15,4.14,7.83,4.14,14.04v.05h8.03v-24.81h-7.93ZM886.56,21.75h-9.29l9.39,24.81h8.82l-8.93-24.81ZM915.18,21.75l-9.08,24.81h8.39l9.29-24.81h-8.59Z"/>
</svg>