<?xml version="1.0" encoding="UTF-8"?>
<svg id="svg2" xmlns="http://www.w3.org/2000/svg" version="1.1" xmlns:cc="http://creativecommons.org/ns#" xmlns:dc="http://purl.org/dc/elements/1.1/" xmlns:rdf="http://www.w3.org/1999/02/22-rdf-syntax-ns#" xmlns:svg="http://www.w3.org/2000/svg" xmlns:xlink="http://www.w3.org/1999/xlink" viewBox="0 0 575.7 479.6">
  <defs>
    <style>
      .cls-1 {
        fill: url(#_Безымянный_градиент_84);
      }

      .cls-1, .cls-2, .cls-3 {
        stroke-width: 0px;
      }

      .cls-2 {
        fill: #fff;
      }

      .cls-3 {
        fill: url(#_Безымянный_градиент_85);
      }
    </style>
    <linearGradient id="_Безымянный_градиент_84" data-name="Безымянный градиент 84" x1="103.3" y1="815.6" x2="104.3" y2="815.6" gradientTransform="translate(170326.2 -21518.6) rotate(90) scale(208.5)" gradientUnits="userSpaceOnUse">
      <stop offset="0" stop-color="#ebf9a3"/>
      <stop offset=".1" stop-color="#ebf9a3"/>
      <stop offset=".3" stop-color="#9ef345"/>
      <stop offset=".4" stop-color="#9ef345"/>
      <stop offset=".5" stop-color="#3ac178"/>
      <stop offset=".7" stop-color="#3ac178"/>
      <stop offset=".9" stop-color="#33f7e7"/>
      <stop offset="1" stop-color="#33f7e7"/>
    </linearGradient>
    <linearGradient id="_Безымянный_градиент_85" data-name="Безымянный градиент 85" x1="97.8" y1="815.6" x2="98.8" y2="815.6" gradientTransform="translate(170326.2 20851.3) rotate(-90) scale(208.5 -208.5)" gradientUnits="userSpaceOnUse">
      <stop offset="0" stop-color="#ebf9a3"/>
      <stop offset=".1" stop-color="#ebf9a3"/>
      <stop offset=".3" stop-color="#9ef345"/>
      <stop offset=".4" stop-color="#9ef345"/>
      <stop offset=".5" stop-color="#3ac178"/>
      <stop offset=".7" stop-color="#3ac178"/>
      <stop offset=".9" stop-color="#33f7e7"/>
      <stop offset="1" stop-color="#33f7e7"/>
    </linearGradient>
  </defs>
  <g id="g3712">
    <path id="path3714" class="cls-2" d="M489.8,14.7l59.1,2.3s-155.7,162.1-164.5,169.2c-8.8,7.2-29.2,14.4-43.9,14.4s-79.3-.7-95.6-3.1c-16.3-2.4-43.6-13.6-50.8-18.4-7.2-4.8-17.5-17.1-24.7-23.9C162.2,148.4,31.6,22,31.6,22h51.1s115.4,119.1,123.2,125.7c7.8,6.5,43.4,41.8,82.3,43.8,38.8,2,68.3-9,83.4-19.6-1.8.7-43.2,14.6-69.1,10.6.4-.4,46.3.4,87.6-41.8,41.3-42.2,99.7-126,99.7-126M562.4,11.8h-90.8s-88.6,99.6-111.4,118.1c-22.9,18.5-45,33.2-67.2,31.7-22.1-1.5-56.1-24.4-79.7-46.5C189.7,93,106.3,11.1,106.3,11.1H13.3c11,10.5,21.9,21,32.9,31.5,23,22,46,44.1,69.1,66.1,20.3,19.5,40.6,38.9,60.9,58.4,30.9,29.6,71.6,57.3,116.1,58,34.1.5,72.5-13.9,97.5-37.4,18.9-17.8,36.7-37.1,54.9-55.6,21.3-21.7,42.6-43.4,63.8-65.2,15.6-15.9,31.1-31.8,46.6-47.8,2.4-2.4,4.8-4.9,7.2-7.3"/>
  </g>
  <g id="g3716">
    <g id="g3718">
      <g id="g3724">
        <g id="g3726">
          <path id="path3746" class="cls-1" d="M390.1,140.7c-41.4,42.2-87.2,41.3-87.6,41.8h0c25.9,4,67.3-9.9,69.1-10.6h0c-15.2,10.6-44.6,21.7-83.4,19.6h0c-38.9-2.1-74.5-37.3-82.3-43.8h0c-7.8-6.5-123.2-125.7-123.2-125.7H31.6s130.6,126.4,137.8,133.2h0c7.2,6.8,15.1,16.1,24.7,23.9h0c11.1,9,25.8,20.3,51.4,28.3h0c20.5,6.4,37.1,6.4,50.7,6.5h0c12.2,0,27,.1,44.4-4.9h0c21.2-6.1,35.8-16.2,43.8-22.7h0c8.8-7.2,164.5-169.2,164.5-169.2h0l-59.1-2.3s-58.3,83.8-99.7,126"/>
        </g>
      </g>
    </g>
  </g>
  <g id="g3814">
    <path id="path3816" class="cls-2" d="M390.1,338.9c-41.4-42.2-87.2-41.3-87.6-41.8,25.9-4,67.3,9.9,69.1,10.6-15.2-10.6-44.6-21.7-83.4-19.6-38.9,2.1-74.5,37.3-82.3,43.8-7.8,6.5-123.2,125.7-123.2,125.7H31.6s130.6-126.4,137.8-133.2c7.2-6.8,17.5-19.1,24.7-23.9,7.2-4.8,34.5-16,50.8-18.4,16.3-2.4,80.9-3.1,95.6-3.1s35.2,7.2,43.9,14.4c8.8,7.2,164.5,169.2,164.5,169.2l-59.1,2.3s-58.3-83.8-99.7-126M555.2,460.4c-15.5-15.9-31.1-31.8-46.6-47.8-21.3-21.7-42.5-43.5-63.8-65.2-18.2-18.5-36-37.8-54.9-55.6-25-23.5-63.5-37.9-97.5-37.4-44.5.7-85.2,28.3-116.1,58-20.3,19.5-40.6,39-60.9,58.4-23,22-46,44.1-69.1,66.1-11,10.5-21.9,21-32.9,31.5h93s83.4-81.9,107-104.1c23.6-22.1,57.6-45,79.7-46.5,22.1-1.5,44.3,13.3,67.2,31.7,22.9,18.4,111.4,118.1,111.4,118.1h90.8c-2.4-2.4-4.8-4.9-7.2-7.3"/>
  </g>
  <g id="g3818">
    <g id="g3820">
      <g id="g3826">
        <g id="g3828">
          <path id="path3848" class="cls-3" d="M296.2,265.7c-13.6,0-30.2.1-50.7,6.5h0c-25.6,8-40.3,19.2-51.4,28.3h0c-9.6,7.8-17.5,17.1-24.7,23.9h0c-7.2,6.8-137.8,133.2-137.8,133.2h51.1s115.4-119.1,123.2-125.7h0c7.8-6.5,43.4-41.8,82.3-43.8h0c38.8-2,68.3,9,83.4,19.6h0c-1.8-.7-43.2-14.6-69.1-10.6h0c.4.4,46.3-.4,87.6,41.8h0c41.3,42.2,99.7,126,99.7,126h0l59.1-2.3s-155.7-162.1-164.5-169.2h0c-8-6.6-22.6-16.6-43.8-22.7h0c-15.8-4.5-29.4-4.9-40.8-4.9h0c-1.2,0-2.4,0-3.6,0"/>
        </g>
      </g>
    </g>
  </g>
</svg>