<?xml version="1.0" encoding="UTF-8"?>
<svg version="1.1" xmlns="http://www.w3.org/2000/svg" width="78" height="88">
<path d="M0 0 C-0.50845555 4.3680954 -1.86944609 6.40185523 -4.875 9.5625 C-5.68324219 10.42230469 -6.49148437 11.28210938 -7.32421875 12.16796875 C-8.20722656 13.10253906 -9.09023437 14.03710938 -10 15 C-10.94747479 16.05549416 -11.89141579 17.11416976 -12.83203125 18.17578125 C-13.30721191 18.7080835 -13.78239258 19.24038574 -14.27197266 19.78881836 C-15.62377138 21.30358834 -16.97403336 22.81972931 -18.32421875 24.3359375 C-23.86592337 29.85337188 -29.21580376 32.60906548 -37 33 C-48.51710372 31.62429695 -56.08130293 23.17478382 -63.75146484 15.26391602 C-65.98952424 12.95998706 -68.2186433 10.8260224 -70.734375 8.82421875 C-73 7 -73 7 -75 4 C-75 3.01 -75 2.02 -75 1 C-69.14477224 1.34313679 -66.14225321 2.9924861 -62.125 7.0625 C-61.08242962 8.06551841 -60.03945742 9.06811931 -58.99609375 10.0703125 C-58.48933105 10.56692383 -57.98256836 11.06353516 -57.46044922 11.57519531 C-46.49682801 22.43590794 -46.49682801 22.43590794 -32 26 C-27.157937 23.28949734 -23.70495945 19.83782049 -20.0625 15.75 C-19.28253662 14.89100098 -19.28253662 14.89100098 -18.48681641 14.01464844 C-15.02968652 10.19491264 -11.62892022 6.32678116 -8.3046875 2.390625 C-5.75741954 -0.32442708 -3.55161827 -0.09346364 0 0 Z " fill="#7CCEB8" transform="translate(78,15)"/>
<path d="M0 0 C0.86882813 -0.03996094 1.73765625 -0.07992187 2.6328125 -0.12109375 C12.00975371 1.49445154 18.47413563 7.28381872 24.875 13.9375 C25.62394531 14.68386719 26.37289062 15.43023437 27.14453125 16.19921875 C30.69975584 19.81850144 33.19453978 22.5776766 34.875 27.4375 C33.875 28.4375 33.875 28.4375 31.125 28.8125 C26.13001397 28.23615546 24.42466391 25.26198115 21.2890625 21.5703125 C12.83152388 11.55983713 12.83152388 11.55983713 1.1484375 6.3359375 C-4.37007618 6.58246904 -8.65805524 10.43520474 -12.75 13.8125 C-13.67039062 14.56273437 -14.59078125 15.31296875 -15.5390625 16.0859375 C-18.05725534 18.37589534 -20.0592694 20.74094414 -22.125 23.4375 C-30.57467774 32.32049455 -30.57467774 32.32049455 -35.4375 32.6875 C-36.324375 32.605 -37.21125 32.5225 -38.125 32.4375 C-37.54484531 29.09171376 -36.54064989 27.49862197 -34.10546875 25.16015625 C-33.49509766 24.56396484 -32.88472656 23.96777344 -32.25585938 23.35351562 C-31.61455078 22.74185547 -30.97324219 22.13019531 -30.3125 21.5 C-25.42389591 16.82214329 -25.42389591 16.82214329 -20.98828125 11.7265625 C-18.92677121 9.19397365 -16.82203012 7.57954025 -14.125 5.75 C-13.279375 5.16863281 -12.43375 4.58726563 -11.5625 3.98828125 C-7.555751 1.43911562 -4.80995015 0.11919702 0 0 Z " fill="#7DCFC0" transform="translate(42.125,48.5625)"/>
<path d="M0 0 C0 0.33 0 0.66 0 1 C-1.546875 1.37125 -1.546875 1.37125 -3.125 1.75 C-6.9316703 2.81555883 -9.76044016 4.73984197 -13 7 C-13.66 7 -14.32 7 -15 7 C-15 7.66 -15 8.32 -15 9 C-16.12525155 10.02649277 -17.30282645 10.99587696 -18.5 11.9375 C-22.88227617 15.62824677 -25.94437449 19.81853747 -29.140625 24.546875 C-30.94726214 26.93042147 -32.44579799 28.46443808 -35 30 C-38.25 30.1875 -38.25 30.1875 -41 30 C-40.41984531 26.65421376 -39.41564989 25.06112197 -36.98046875 22.72265625 C-36.37009766 22.12646484 -35.75972656 21.53027344 -35.13085938 20.91601562 C-34.48955078 20.30435547 -33.84824219 19.69269531 -33.1875 19.0625 C-29.18623011 15.20047594 -25.40164208 11.41741021 -22 7 C-15.78158954 0.95925841 -8.3919308 -0.45774168 0 0 Z " fill="#309B79" transform="translate(45,51)"/>
<path d="M0 0 C-0.49175547 4.53059961 -2.07636248 6.6127352 -5.1875 9.875 C-8.00489696 12.86206587 -10.70575864 15.84068 -13.25 19.0625 C-15.6565216 21.93695636 -17.25375132 22.47968768 -21 23 C-22.36020151 24.96758273 -22.36020151 24.96758273 -23 27 C-24.32 26.67 -25.64 26.34 -27 26 C-26.34 25.67 -25.68 25.34 -25 25 C-24.46375 23.989375 -23.9275 22.97875 -23.375 21.9375 C-21.17890025 17.88636145 -18.19205895 15.07277814 -14.8046875 11.9921875 C-12.79168141 9.77003792 -12.0654536 7.77731211 -11 5 C-7.43604487 1.43604487 -5.1758575 -0.76115552 0 0 Z " fill="#64B261" transform="translate(78,15)"/>
<path d="M0 0 C5.85522776 0.34313679 8.85774679 1.9924861 12.875 6.0625 C13.91757038 7.06551841 14.96054258 8.06811931 16.00390625 9.0703125 C16.51066895 9.56692383 17.01743164 10.06353516 17.53955078 10.57519531 C25.26502201 18.11211441 31.81079459 24.44971121 43 25 C45.36693717 24.66499921 45.36693717 24.66499921 47 24 C46.34 24.99 45.68 25.98 45 27 C34.63283261 28.05428821 28.78156092 23.32329423 20.8671875 17.15625 C18.07668481 14.96738275 18.07668481 14.96738275 15.1328125 13.34375 C14.07707031 12.67859375 14.07707031 12.67859375 13 12 C13 11.34 13 10.68 13 10 C12.01 10 11.02 10 10 10 C14.62 14.62 19.24 19.24 24 24 C21 24 21 24 19.45361328 22.77832031 C18.91462402 22.21725586 18.37563477 21.65619141 17.8203125 21.078125 C17.22089844 20.46453125 16.62148438 19.8509375 16.00390625 19.21875 C15.38386719 18.5690625 14.76382812 17.919375 14.125 17.25 C10.23453397 13.22029624 6.38943954 9.49267232 2 6 C0 3 0 3 0 0 Z " fill="#9CCC96" transform="translate(3,16)"/>
<path d="M0 0 C8.28964704 0.97525259 13.6495337 7.31139054 19.25 12.9375 C19.96929687 13.64068359 20.68859375 14.34386719 21.4296875 15.06835938 C22.11804688 15.75607422 22.80640625 16.44378906 23.515625 17.15234375 C24.13727539 17.77101318 24.75892578 18.38968262 25.39941406 19.02709961 C27.19054673 21.23487006 28.07425393 23.32591139 29 26 C28 27 28 27 25.25 27.375 C20.97701074 26.88196278 19.65559342 25.28043894 17 22 C17 21.34 17 20.68 17 20 C17.66 20 18.32 20 19 20 C19.33 20.66 19.66 21.32 20 22 C20.99 22 21.98 22 23 22 C20.68737527 17.71414597 17.73729438 14.35372704 14.3125 10.9375 C13.78301758 10.40672852 13.25353516 9.87595703 12.70800781 9.32910156 C8.79476782 5.52027792 5.13932913 2.97666505 0 1 C0 0.67 0 0.34 0 0 Z " fill="#C5E8D8" transform="translate(48,50)"/>
<path d="M0 0 C0.66 0.33 1.32 0.66 2 1 C1.25556641 1.61875 1.25556641 1.61875 0.49609375 2.25 C-4.48761495 6.48662523 -8.81930174 10.97707369 -13 16 C-13.51046875 16.60714844 -14.0209375 17.21429688 -14.546875 17.83984375 C-15.70412181 19.2213884 -16.85311753 20.60983943 -18 22 C-16.02 21.34 -14.04 20.68 -12 20 C-13.39187719 23.36370321 -14.79431396 25.21906331 -18 27 C-21.25 27.1875 -21.25 27.1875 -24 27 C-23.41984531 23.65421376 -22.41564989 22.06112197 -19.98046875 19.72265625 C-19.37009766 19.12646484 -18.75972656 18.53027344 -18.13085938 17.91601562 C-17.48955078 17.30435547 -16.84824219 16.69269531 -16.1875 16.0625 C-12.18225332 12.19663754 -8.43599218 8.39433014 -5 4 C-3.36643049 2.62631655 -1.7074998 1.28062485 0 0 Z " fill="#B9DDBE" transform="translate(28,54)"/>
<path d="M0 0 C2.475 0.99 2.475 0.99 5 2 C5 2.66 5 3.32 5 4 C5.71800781 4.25136719 6.43601562 4.50273437 7.17578125 4.76171875 C10.25324062 6.11103358 12.55506044 7.72964691 15.1875 9.8125 C16.04730469 10.47894531 16.90710938 11.14539063 17.79296875 11.83203125 C20.13307434 14.13071904 21.0309997 15.89811635 22 19 C19.76953125 19.28125 19.76953125 19.28125 17 19 C14.82421875 17.09375 14.82421875 17.09375 12.6875 14.5 C9.10911934 10.27919194 5.40653356 6.34512121 1.43359375 2.49609375 C0 1 0 1 0 0 Z " fill="#369671" transform="translate(11,24)"/>
<path d="M0 0 C4.3648782 0.44581891 6.77649058 3.33208903 9.6875 6.3125 C10.43483398 7.04243164 10.43483398 7.04243164 11.19726562 7.78710938 C13.74788623 10.35849487 15.62301652 12.30906869 16 16 C14.35 15.67 12.7 15.34 11 15 C11 14.34 11 13.68 11 13 C10.34 13 9.68 13 9 13 C7.34375 11.3203125 7.34375 11.3203125 5.5 9.125 C3.71066742 7.00964496 1.95980876 4.95980876 0 3 C0 2.01 0 1.02 0 0 Z " fill="#469752" transform="translate(56,57)"/>
<path d="M0 0 C0.928125 0.845625 1.85625 1.69125 2.8125 2.5625 C9.73920256 8.45159934 16.61768517 14 26 14 C28.36693717 13.66499921 28.36693717 13.66499921 30 13 C29.01 14.485 29.01 14.485 28 16 C17.68807305 17.04867054 11.44103191 12.09385838 3.4765625 6.25390625 C1.05633067 4.05126624 0.27622123 3.19108209 0 0 Z " fill="#B4EBE3" transform="translate(20,27)"/>
<path d="M0 0 C0.66 0.66 1.32 1.32 2 2 C0.96875 1.938125 -0.0625 1.87625 -1.125 1.8125 C-7.57163693 2.12443405 -11.75561546 5.35604318 -16.625 9.375 C-17.54539062 10.12523437 -18.46578125 10.87546875 -19.4140625 11.6484375 C-21.9257157 13.93244842 -23.961829 16.29200755 -26 19 C-26.66 18.67 -27.32 18.34 -28 18 C-26.89718873 16.72799029 -25.79269231 15.45744147 -24.6875 14.1875 C-24.07261719 13.47980469 -23.45773438 12.77210937 -22.82421875 12.04296875 C-19.55088953 8.3771204 -19.55088953 8.3771204 -18 7 C-17.34 7 -16.68 7 -16 7 C-16 6.34 -16 5.68 -16 5 C-10.53430157 0.90072618 -6.79475841 -0.44313642 0 0 Z " fill="#A0D7BF" transform="translate(46,53)"/>
<path d="M0 0 C0.33 1.32 0.66 2.64 1 4 C0.34 4 -0.32 4 -1 4 C-1 4.66 -1 5.32 -1 6 C0.32 5.34 1.64 4.68 3 4 C2.375 5.875 2.375 5.875 1 8 C-1 8.66666667 -3 9.33333333 -5 10 C-6.42055068 12.00136244 -6.42055068 12.00136244 -7 14 C-8.32 13.67 -9.64 13.34 -11 13 C-10.34 12.67 -9.68 12.34 -9 12 C-8.04533302 10.28818334 -7.09214893 8.57548955 -6.15234375 6.85546875 C-4.45435646 4.12142143 -2.36612015 2.16894347 0 0 Z " fill="#59AF8B" transform="translate(62,28)"/>
<path d="M0 0 C0.61875 0.45375 1.2375 0.9075 1.875 1.375 C6.0930587 3.56839052 10.33975586 4.23083349 15 5 C15 5.33 15 5.66 15 6 C11.37 6 7.74 6 4 6 C6.56893838 7.28446919 8.76576337 7.32977144 11.625 7.5625 C13.12933594 7.68818359 13.12933594 7.68818359 14.6640625 7.81640625 C15.43492188 7.87699219 16.20578125 7.93757813 17 8 C13.54226999 10.1825388 11.40174889 10.07298856 7.4375 9.3125 C6.48746094 9.14363281 5.53742187 8.97476563 4.55859375 8.80078125 C1.87815774 7.96186616 0.75528188 7.14534452 -1 5 C-0.01 5 0.98 5 2 5 C1.34 3.35 0.68 1.7 0 0 Z " fill="#7AD3C4" transform="translate(31,38)"/>
<path d="M0 0 C7.74468085 0.74468085 7.74468085 0.74468085 11 4 C11 4.66 11 5.32 11 6 C8.03 5.505 8.03 5.505 5 5 C5.66 6.32 6.32 7.64 7 9 C3.64564078 7.61198929 1.88709697 6.11371 0 3 C0 2.01 0 1.02 0 0 Z " fill="#CAE2B2" transform="translate(3,16)"/>
<path d="M0 0 C-0.4793247 4.31392226 -1.7457985 6.16569547 -5 9 C-4.67 7.35 -4.34 5.7 -4 4 C-6.9719385 5.12451727 -9.33440687 6.22293791 -12 8 C-9.82021749 2.45146271 -6.05820197 -0.69236594 0 0 Z " fill="#BADDA7" transform="translate(78,15)"/>
<path d="M0 0 C0.66 0 1.32 0 2 0 C2.33 0.66 2.66 1.32 3 2 C3.99 2 4.98 2 6 2 C6.33 1.34 6.66 0.68 7 0 C8.65 1.32 10.3 2.64 12 4 C11.67 4.99 11.34 5.98 11 7 C8.3125 7.3125 8.3125 7.3125 5 7 C2.125 4.625 2.125 4.625 0 2 C0 1.34 0 0.68 0 0 Z " fill="#99CA91" transform="translate(65,70)"/>
<path d="M0 0 C2.37948772 0.17625835 3.70225849 0.69719773 5.37890625 2.40234375 C6.62115486 3.90649092 7.81376056 5.45129851 9 7 C8.34 7 7.68 7 7 7 C6.67 7.66 6.34 8.32 6 9 C4.99105628 8.07213211 3.99309093 7.13231567 3 6.1875 C2.1646875 5.40439453 2.1646875 5.40439453 1.3125 4.60546875 C0 3 0 3 0 0 Z " fill="#438F74" transform="translate(56,57)"/>
<path d="M0 0 C3.74389498 0.2759229 5.60357033 0.65779892 8.484375 3.14453125 C9.60585938 4.46517578 9.60585938 4.46517578 10.75 5.8125 C11.50796875 6.68519531 12.2659375 7.55789062 13.046875 8.45703125 C14.6962496 10.60451698 15.91877099 12.53272742 17 15 C3.28571429 3.28571429 3.28571429 3.28571429 0 0 Z " fill="#ACDFCC" transform="translate(48,55)"/>
<path d="M0 0 C3.16717283 1.58358642 4.73268318 2.45263699 6.3125 5.6875 C6.539375 6.450625 6.76625 7.21375 7 8 C4.6875 8.3125 4.6875 8.3125 2 8 C0.125 5.6875 0.125 5.6875 -1 3 C-0.67 2.01 -0.34 1.02 0 0 Z " fill="#4AAD94" transform="translate(26,35)"/>
<path d="M0 0 C1.32 0.66 2.64 1.32 4 2 C1.97958823 5.03061766 1.24314437 5.72239767 -2 7 C-2.99 7 -3.98 7 -5 7 C-3.70700306 4.11562221 -2.34058637 2.12780579 0 0 Z " fill="#72A85B" transform="translate(15,69)"/>
<path d="M0 0 C0 0.33 0 0.66 0 1 C-1.546875 1.4021875 -1.546875 1.4021875 -3.125 1.8125 C-6.6485042 2.80998897 -9.76880827 4.2661898 -13 6 C-13.99 5.34 -14.98 4.68 -16 4 C-10.4174808 0.67424388 -6.50313209 -0.46450943 0 0 Z " fill="#46AF96" transform="translate(45,51)"/>
<path d="M0 0 C-0.7109375 1.921875 -0.7109375 1.921875 -2 4 C-4.1640625 4.828125 -4.1640625 4.828125 -6.625 5.25 C-7.85089844 5.47429687 -7.85089844 5.47429687 -9.1015625 5.703125 C-9.72804688 5.80109375 -10.35453125 5.8990625 -11 6 C-7.42339713 2.12534689 -5.31051586 0 0 0 Z " fill="#B0CF90" transform="translate(16,74)"/>
<path d="M0 0 C0.66 0.66 1.32 1.32 2 2 C0.96875 1.938125 -0.0625 1.87625 -1.125 1.8125 C-5.27779168 2.01344153 -7.43069941 2.9719883 -11 5 C-11.99 5.33 -12.98 5.66 -14 6 C-13.375 4.125 -13.375 4.125 -12 2 C-7.96213345 0.16460611 -4.41387405 -0.40126128 0 0 Z " fill="#A3E2D5" transform="translate(46,53)"/>
<path d="M0 0 C5.875 2.75 5.875 2.75 7 5 C6.34 5 5.68 5 5 5 C4.67 5.66 4.34 6.32 4 7 C3.5875 6.54625 3.175 6.0925 2.75 5.625 C0.93591905 3.94049626 -0.75285627 3.00734029 -3 2 C-2.01 2 -1.02 2 0 2 C0 1.34 0 0.68 0 0 Z " fill="#5FB5A0" transform="translate(51,52)"/>
<path d="M0 0 C0.33 0.66 0.66 1.32 1 2 C0.22265625 3.9453125 0.22265625 3.9453125 -0.9375 6.125 C-1.31777344 6.84945312 -1.69804688 7.57390625 -2.08984375 8.3203125 C-2.54037109 9.15175781 -2.54037109 9.15175781 -3 10 C-4.32 9.67 -5.64 9.34 -7 9 C-6.34 8.67 -5.68 8.34 -5 8 C-3.91852299 6.38240139 -3.91852299 6.38240139 -2.9375 4.5 C-1.08071749 1.08071749 -1.08071749 1.08071749 0 0 Z " fill="#48B493" transform="translate(58,32)"/>
<path d="M0 0 C1.65 0 3.3 0 5 0 C5.66 1.32 6.32 2.64 7 4 C5.68 4.33 4.36 4.66 3 5 C3 4.34 3 3.68 3 3 C2.01 3 1.02 3 0 3 C0 2.01 0 1.02 0 0 Z " fill="#C2DAB1" transform="translate(3,16)"/>
<path d="M0 0 C0.66 0 1.32 0 2 0 C1.42655063 2.86724686 1.1385485 3.8614515 -1 6 C-1.99 6 -2.98 6 -4 6 C-2.84826645 3.53199953 -1.95216435 1.95216435 0 0 Z " fill="#348F55" transform="translate(20,64)"/>
<path d="M0 0 C1.17539996 0.92652701 2.34010577 1.86663387 3.5 2.8125 C4.1496875 3.33457031 4.799375 3.85664063 5.46875 4.39453125 C7 6 7 6 7 9 C5.82460004 8.07347299 4.65989423 7.13336613 3.5 6.1875 C2.52546875 5.40439453 2.52546875 5.40439453 1.53125 4.60546875 C0 3 0 3 0 0 Z " fill="#A7DBC1" transform="translate(20,27)"/>
<path d="M0 0 C2.475 0.99 2.475 0.99 5 2 C5 2.66 5 3.32 5 4 C5.99 4.33 6.98 4.66 8 5 C8 5.66 8 6.32 8 7 C4.2047869 5.50902342 2.38957269 3.24299151 0 0 Z " fill="#469543" transform="translate(11,24)"/>
</svg>
