<?xml version="1.0" encoding="UTF-8"?>
<svg id="svg2" xmlns="http://www.w3.org/2000/svg" version="1.1" xmlns:cc="http://creativecommons.org/ns#" xmlns:dc="http://purl.org/dc/elements/1.1/" xmlns:rdf="http://www.w3.org/1999/02/22-rdf-syntax-ns#" xmlns:svg="http://www.w3.org/2000/svg" xmlns:xlink="http://www.w3.org/1999/xlink" viewBox="0 0 296.39 30.56">
  <!-- Generator: Adobe Illustrator 29.6.0, SVG Export Plug-In . SVG Version: 2.1.1 Build 207)  -->
  <defs>
    <style>
      .st0, .st1 {
        fill: #fff;
      }

      .st1 {
        font-family: ArialMT, Arial;
        font-size: 30.36px;
        letter-spacing: -.02em;
      }

      .st2 {
        fill: url(#_Безымянный_градиент_2);
      }

      .st3 {
        fill: url(#_Безымянный_градиент);
      }
    </style>
    <linearGradient id="_Безымянный_градиент" data-name="Безымянный градиент" x1="-127.51" y1="312.62" x2="-127.48" y2="312.62" gradientTransform="translate(-65171.53 26593.77) rotate(90) scale(208.5 -208.5)" gradientUnits="userSpaceOnUse">
      <stop offset="0" stop-color="#ebf9a3"/>
      <stop offset=".1" stop-color="#ebf9a3"/>
      <stop offset=".3" stop-color="#9ef345"/>
      <stop offset=".4" stop-color="#9ef345"/>
      <stop offset=".5" stop-color="#3ac178"/>
      <stop offset=".7" stop-color="#3ac178"/>
      <stop offset=".9" stop-color="#33f7e7"/>
      <stop offset="1" stop-color="#33f7e7"/>
    </linearGradient>
    <linearGradient id="_Безымянный_градиент_2" data-name="Безымянный градиент 2" x1="-127.63" y1="312.62" x2="-127.59" y2="312.62" gradientTransform="translate(-65171.53 -26588.3) rotate(-90) scale(208.5)" gradientUnits="userSpaceOnUse">
      <stop offset="0" stop-color="#ebf9a3"/>
      <stop offset=".1" stop-color="#ebf9a3"/>
      <stop offset=".3" stop-color="#9ef345"/>
      <stop offset=".4" stop-color="#9ef345"/>
      <stop offset=".5" stop-color="#3ac178"/>
      <stop offset=".7" stop-color="#3ac178"/>
      <stop offset=".9" stop-color="#33f7e7"/>
      <stop offset="1" stop-color="#33f7e7"/>
    </linearGradient>
  </defs>
  <text class="st1" transform="translate(21.06 23.04)"><tspan x="0" y="0">Green.Energy (XRG)</tspan></text>
  <g>
    <g id="g3712">
      <path id="path3714" class="st0" d="M17.07,7.24l1.99.08s-5.25,5.47-5.55,5.7c-.3.24-.98.49-1.48.49s-2.67-.02-3.22-.1c-.55-.08-1.47-.46-1.71-.62-.24-.16-.59-.58-.83-.81-.24-.23-4.65-4.49-4.65-4.49h1.72s3.89,4.02,4.15,4.24c.26.22,1.46,1.41,2.77,1.48,1.31.07,2.3-.3,2.81-.66-.06.02-1.46.49-2.33.36.01-.01,1.56.01,2.95-1.41,1.39-1.42,3.36-4.25,3.36-4.25M19.51,7.14h-3.06s-2.99,3.36-3.76,3.98c-.77.62-1.52,1.12-2.27,1.07-.75-.05-1.89-.82-2.69-1.57-.8-.75-3.61-3.51-3.61-3.51H1c.37.35.74.71,1.11,1.06.78.74,1.55,1.49,2.33,2.23.68.66,1.37,1.31,2.05,1.97,1.04,1,2.41,1.93,3.91,1.96,1.15.02,2.44-.47,3.29-1.26.64-.6,1.24-1.25,1.85-1.87.72-.73,1.44-1.46,2.15-2.2.53-.54,1.05-1.07,1.57-1.61.08-.08.16-.17.24-.25"/>
    </g>
    <g id="g3716">
      <g id="g3718">
        <g id="g3724">
          <g id="g3726">
            <path id="path3746" class="st3" d="M13.7,11.48c-1.4,1.42-2.94,1.39-2.95,1.41h0c.87.13,2.27-.33,2.33-.36h0c-.51.36-1.5.73-2.81.66h0c-1.31-.07-2.51-1.26-2.77-1.48h0c-.26-.22-4.15-4.24-4.15-4.24h-1.72s4.4,4.26,4.65,4.49h0c.24.23.51.54.83.81h0c.37.3.87.68,1.73.95h0c.69.22,1.25.22,1.71.22h0c.41,0,.91,0,1.5-.17h0c.71-.21,1.21-.55,1.48-.77h0c.3-.24,5.55-5.7,5.55-5.7h0l-1.99-.08s-1.97,2.83-3.36,4.25"/>
          </g>
        </g>
      </g>
    </g>
    <g id="g3814">
      <path id="path3816" class="st0" d="M13.7,18.17c-1.4-1.42-2.94-1.39-2.95-1.41.87-.13,2.27.33,2.33.36-.51-.36-1.5-.73-2.81-.66-1.31.07-2.51,1.26-2.77,1.48s-4.15,4.24-4.15,4.24h-1.72s4.4-4.26,4.65-4.49c.24-.23.59-.64.83-.81s1.16-.54,1.71-.62,2.73-.1,3.22-.1,1.19.24,1.48.49c.3.24,5.55,5.7,5.55,5.7l-1.99.08s-1.97-2.83-3.36-4.25M19.27,22.26c-.52-.54-1.05-1.07-1.57-1.61-.72-.73-1.43-1.47-2.15-2.2-.61-.62-1.21-1.27-1.85-1.87-.84-.79-2.14-1.28-3.29-1.26-1.5.02-2.87.95-3.91,1.96-.68.66-1.37,1.31-2.05,1.97-.78.74-1.55,1.49-2.33,2.23-.37.35-.74.71-1.11,1.06h3.14s2.81-2.76,3.61-3.51c.8-.75,1.94-1.52,2.69-1.57s1.49.45,2.27,1.07c.77.62,3.76,3.98,3.76,3.98h3.06c-.08-.08-.16-.17-.24-.25"/>
    </g>
    <g id="g3818">
      <g id="g3820">
        <g id="g3826">
          <g id="g3828">
            <path id="path3848" class="st2" d="M10.54,15.7c-.46,0-1.02,0-1.71.22h0c-.86.27-1.36.65-1.73.95h0c-.32.26-.59.58-.83.81h0c-.24.23-4.65,4.49-4.65,4.49h1.72s3.89-4.02,4.15-4.24h0c.26-.22,1.46-1.41,2.77-1.48h0c1.31-.07,2.3.3,2.81.66h0c-.06-.02-1.46-.49-2.33-.36h0s1.56-.01,2.95,1.41h0c1.39,1.42,3.36,4.25,3.36,4.25h0l1.99-.08s-5.25-5.47-5.55-5.7h0c-.27-.22-.76-.56-1.48-.77h0c-.53-.15-.99-.17-1.38-.17h-.12"/>
          </g>
        </g>
      </g>
    </g>
  </g>
</svg>