<?xml version="1.0" encoding="UTF-8"?>
<svg version="1.1" xmlns="http://www.w3.org/2000/svg" width="78" height="88">
<path d="M0 0 C22.11 0 44.22 0 67 0 C66.01 0.99 65.02 1.98 64 3 C63.01 3 62.02 3 61 3 C60.67 3.99 60.34 4.98 60 6 C57.40822843 7.45246577 54.88775794 8.72133352 52.1875 9.9375 C51.412854 10.29086426 50.63820801 10.64422852 49.84008789 11.00830078 C38.26897762 16.20564682 27.56051381 18.78857989 15 20 C18.51661954 23.56422183 22.14711111 26.80292199 26 30 C26.8971875 30.99 26.8971875 30.99 27.8125 32 C32.47008888 36.25836698 37.44670489 39.31208031 43.875 39.375 C46.57440713 39.24922117 48.39292937 38.86902354 51 38 C51.33 37.01 51.66 36.02 52 35 C52.66 35 53.32 35 54 35 C54.24105469 34.42894531 54.48210938 33.85789063 54.73046875 33.26953125 C56.24506367 30.56190157 58.06081878 28.81808239 60.3125 26.6875 C63.17220396 23.93253043 65.51641088 21.39846994 67.5625 18 C70.16032 14.80268307 70.50395118 14.54855606 74.3125 14.0625 C75.529375 14.041875 76.74625 14.02125 78 14 C78.50846012 19.33883127 77.28778412 21.82362558 74 26 C71.62448167 28.55825051 69.25873977 30.79947668 66.5 32.9375 C63.87355413 34.95153231 63.87355413 34.95153231 61.8125 37.8125 C58.35909935 42.16824082 53.60146469 44.98000958 49 48 C49.74765625 48.45890625 50.4953125 48.9178125 51.265625 49.390625 C52.25046875 50.00421875 53.2353125 50.6178125 54.25 51.25 C55.22453125 51.85328125 56.1990625 52.4565625 57.203125 53.078125 C59.81475887 54.8727114 61.92590741 56.6098552 64 59 C64 59.66 64 60.32 64 61 C64.57492188 61.24878906 65.14984375 61.49757812 65.7421875 61.75390625 C68.32567198 63.17973938 70.0626556 64.83202672 72.125 66.9375 C72.80820313 67.62714844 73.49140625 68.31679687 74.1953125 69.02734375 C77.15241902 72.25967879 78 73.50012727 78 78 C74.8121689 78.66413148 72.17406716 78.79847627 69 78 C66.63192645 75.80684098 64.91637885 73.44492866 63.046875 70.81640625 C60.9668991 67.95445468 58.74373762 65.50596182 56.25 63 C55.53328125 62.278125 54.8165625 61.55625 54.078125 60.8125 C49.88381492 57.15430474 46.61053861 56.61279317 41.171875 56.74609375 C38.15826463 57.09840431 36.40548928 58.17962974 34 60 C32.948125 60.66 31.89625 61.32 30.8125 62 C27.82932798 63.86966769 27.82932798 63.86966769 26 67 C25.34 67 24.68 67 24 67 C23.773125 67.5775 23.54625 68.155 23.3125 68.75 C21.66216522 71.57914534 19.56741423 72.98274596 17 75 C16.319375 75.86625 15.63875 76.7325 14.9375 77.625 C12.9639903 80.04414093 11.93576622 81.05019328 9 82 C5.75 82.125 5.75 82.125 3 82 C3.33729094 78.06493909 4.43662677 76.23374839 7.33203125 73.6015625 C10.44352879 70.61394191 13.18472106 67.26632953 16.01171875 64.01171875 C16.66785156 63.34785156 17.32398437 62.68398438 18 62 C18.66 62 19.32 62 20 62 C20.37898438 61.10474609 20.37898438 61.10474609 20.765625 60.19140625 C23.82714921 54.75623194 30.49244689 51.4783989 36 49 C35.42894531 48.62230469 34.85789063 48.24460938 34.26953125 47.85546875 C27.81962506 43.47691558 21.88900901 38.66692616 15.99609375 33.58203125 C14.25455147 32.08117147 12.50200909 30.59255289 10.72265625 29.13671875 C7.33006762 26.36096441 5.16441162 23.78772034 3 20 C2.01 19.67 1.02 19.34 0 19 C0 12.73 0 6.46 0 0 Z " fill="#08A68C" transform="translate(0,0)"/>
<path d="M0 0 C22.11 0 44.22 0 67 0 C66.01 0.99 65.02 1.98 64 3 C63.01 3 62.02 3 61 3 C60.67 3.99 60.34 4.98 60 6 C57.40833944 7.45240356 54.88741232 8.72086929 52.1875 9.9375 C51.41792969 10.29013916 50.64835937 10.64277832 49.85546875 11.00610352 C40.82583143 15.07602442 31.98391816 18.56670156 22 19 C20.82244141 19.07734375 20.82244141 19.07734375 19.62109375 19.15625 C14.70212179 19.35073983 12.15788375 18.80938091 8 16 C4.80604974 15.28598768 4.80604974 15.28598768 2 15 C2 16.32 2 17.64 2 19 C1.34 19 0.68 19 0 19 C0 12.73 0 6.46 0 0 Z " fill="#FFFFFA" transform="translate(0,0)"/>
<path d="M0 0 C3.09463191 -0.46419479 5.2612611 -0.42769094 8.00390625 1.16015625 C12.00876233 4.13150108 15.52105578 7.42703026 19 11 C20.66270287 12.33827304 22.32916181 13.67189785 24 15 C25.35147138 16.31494512 26.69112542 17.64264858 28 19 C27.67 19.66 27.34 20.32 27 21 C25.68 20.34 24.36 19.68 23 19 C24.36983503 22.16115776 24.9890638 22.9927092 28 25 C28 25.66 28 26.32 28 27 C23.4579035 26.49259463 21.12910157 24.81355995 17.6875 21.875 C16.73101563 21.06160156 15.77453125 20.24820313 14.7890625 19.41015625 C13.86867188 18.61480469 12.94828125 17.81945312 12 17 C11.22398438 16.35933594 10.44796875 15.71867187 9.6484375 15.05859375 C5.64389489 11.70647662 2.47050886 8.63220411 0 4 C0 2.68 0 1.36 0 0 Z " fill="#47B348" transform="translate(2,15)"/>
<path d="M0 0 C0.50846012 5.33883127 -0.71221588 7.82362558 -4 12 C-6.41506448 14.60083867 -8.83470862 16.8701282 -11.625 19.0625 C-13.86033895 20.88606599 -15.38836133 22.62495353 -17 25 C-19.76276177 24.47731534 -22.3260876 23.89130413 -25 23 C-23.60015736 18.60496332 -21.52784414 16.26001564 -18.1875 13.125 C-15.15833528 10.20495505 -12.41137572 7.43199302 -10.0625 3.9375 C-7.14245271 -0.22135524 -4.79374065 -0.12956056 0 0 Z " fill="#1FA169" transform="translate(78,14)"/>
<path d="M0 0 C2 1 2 1 4 3 C4.86625 2.4740625 4.86625 2.4740625 5.75 1.9375 C8.35801776 0.85082593 9.39417629 1.06934867 12 2 C11.21625 2.433125 10.4325 2.86625 9.625 3.3125 C6.78301625 4.89220247 6.78301625 4.89220247 5 8 C4.34 8 3.68 8 3 8 C2.773125 8.5775 2.54625 9.155 2.3125 9.75 C0.66216522 12.57914534 -1.43258577 13.98274596 -4 16 C-4.680625 16.86625 -5.36125 17.7325 -6.0625 18.625 C-8.0360097 21.04414093 -9.06423378 22.05019328 -12 23 C-15.25 23.125 -15.25 23.125 -18 23 C-17.66270906 19.06493909 -16.56337323 17.23374839 -13.66796875 14.6015625 C-10.55647121 11.61394191 -7.81527894 8.26632953 -4.98828125 5.01171875 C-4.33214844 4.34785156 -3.67601562 3.68398438 -3 3 C-2.34 3 -1.68 3 -1 3 C-0.67 2.01 -0.34 1.02 0 0 Z " fill="#1A9856" transform="translate(21,59)"/>
<path d="M0 0 C5.04396684 0.4117524 7.73899014 1.4164848 12.1015625 4.140625 C16.52070555 6.14106013 21.52471388 5.49176204 26 4 C26.33 3.01 26.66 2.02 27 1 C27.33 1.66 27.66 2.32 28 3 C28.99 3.33 29.98 3.66 31 4 C24.95442924 11.01286208 17.9754373 11.45085261 9.20703125 12.27734375 C6 12 6 12 3.57421875 10.00390625 C3.05472656 9.34261719 2.53523438 8.68132813 2 8 C2.99 8 3.98 8 5 8 C3.7625 6.8553125 3.7625 6.8553125 2.5 5.6875 C0 3 0 3 0 0 Z " fill="#28B7A1" transform="translate(25,34)"/>
<path d="M0 0 C2.51248328 1.9924704 4.44341151 4.19471964 6 7 C6 8.32 6 9.64 6 11 C2.86844468 11.50104885 0.11307176 11.67829531 -3 11 C-5.61257261 8.68826909 -7.41315808 6.09900892 -9 3 C-9 2.34 -9 1.68 -9 1 C-5.76645861 -0.6167707 -3.57239465 -0.47631929 0 0 Z " fill="#31972B" transform="translate(72,67)"/>
<path d="M0 0 C1.7074998 1.28062485 3.37373596 2.61767557 5 4 C5 4.66 5 5.32 5 6 C5.598125 6.2475 6.19625 6.495 6.8125 6.75 C9.28647521 8.16370012 10.43370255 9.65055383 12 12 C8.92987874 13.49798187 6.43089016 14.27627959 3 14 C-0.90502667 11.15359744 -4.00003789 7.77657025 -7 4 C-7 3.67 -7 3.34 -7 3 C-3.535 2.505 -3.535 2.505 0 2 C0 1.34 0 0.68 0 0 Z " fill="#208966" transform="translate(59,55)"/>
<path d="M0 0 C11.82150518 -0.86078921 11.82150518 -0.86078921 15.75 2.375 C18 5 18 5 18 7 C14.82587823 8.58706088 11.46361333 8.28477127 8 8 C5 7 5 7 3 6 C3 5.01 3 4.02 3 3 C2.01 2.67 1.02 2.34 0 2 C0 1.34 0 0.68 0 0 Z " fill="#23B399" transform="translate(41,50)"/>
<path d="M0 0 C1.134375 0.020625 2.26875 0.04125 3.4375 0.0625 C2.61107208 4.35992516 2.01021072 6.55487005 -1.3125 9.5 C-4.74800011 11.15168275 -6.80702054 11.42016471 -10.5625 11.0625 C-10.14735103 6.2190954 -8.10041301 4.24662171 -4.5625 1.0625 C-3.5625 0.0625 -3.5625 0.0625 0 0 Z " fill="#5EA335" transform="translate(13.5625,70.9375)"/>
<path d="M0 0 C3.77450884 -0.35947703 5.84678896 -0.07226936 9.3125 1.5625 C12 4 12 4 12.875 7.75 C12.91625 8.8225 12.9575 9.895 13 11 C11.39120578 10.60157441 9.78801827 10.18046843 8.1875 9.75 C6.84751953 9.40195312 6.84751953 9.40195312 5.48046875 9.046875 C2.55287511 7.81129217 1.52105204 6.76922432 0 4 C0 2.68 0 1.36 0 0 Z " fill="#7DB748" transform="translate(2,15)"/>
<path d="M0 0 C0.125 5.75 0.125 5.75 -1 8 C-3.3306218 8.35179197 -5.66435067 8.68330179 -8 9 C-10.33588323 9.95584438 -10.33588323 9.95584438 -12 11 C-10.66036745 3.57112861 -10.66036745 3.57112861 -7.6875 1 C-4.90688162 -0.0346487 -2.93919356 -0.25193088 0 0 Z " fill="#4FA43C" transform="translate(78,14)"/>
<path d="M0 0 C3.79588866 0.54226981 5.47211993 2.20127563 8 5 C7.67 5.66 7.34 6.32 7 7 C5.68 6.34 4.36 5.68 3 5 C4.36983503 8.16115776 4.9890638 8.9927092 8 11 C8 11.66 8 12.32 8 13 C2.64847115 12.67566492 -0.28280043 9.50295176 -4 6 C-3.67 4.35 -3.34 2.7 -3 1 C-2.01 1.33 -1.02 1.66 0 2 C0 1.34 0 0.68 0 0 Z " fill="#1A8761" transform="translate(22,29)"/>
<path d="M0 0 C0.33 0.99 0.66 1.98 1 3 C0.67 3.66 0.34 4.32 0 5 C0.53625 4.505 1.0725 4.01 1.625 3.5 C4.59358445 1.62510456 6.55312427 1.76498575 10 2 C7.99155908 6.92980953 4.35894926 10.09403383 0 13 C-0.33 10.69 -0.66 8.38 -1 6 C-1.66 6 -2.32 6 -3 6 C-2 4 -1 2 0 0 Z " fill="#2AAA27" transform="translate(66,20)"/>
<path d="M0 0 C0.66 0.66 1.32 1.32 2 2 C1.67 2.99 1.34 3.98 1 5 C1.99 5.33 2.98 5.66 4 6 C0.7 7.32 -2.6 8.64 -6 10 C-6.33 9.34 -6.66 8.68 -7 8 C-7.66 7.67 -8.32 7.34 -9 7 C-9 6.34 -9 5.68 -9 5 C-3.83389831 0.26440678 -3.83389831 0.26440678 0 0 Z " fill="#089A74" transform="translate(31,53)"/>
<path d="M0 0 C0.33 0.66 0.66 1.32 1 2 C1.99 2.33 2.98 2.66 4 3 C0.78536788 6.72897326 -2.31714908 8.49196326 -7 10 C-10.9375 9.6875 -10.9375 9.6875 -14 9 C-14 8.34 -14 7.68 -14 7 C-7.25 6.875 -7.25 6.875 -5 8 C-4.896875 7.360625 -4.79375 6.72125 -4.6875 6.0625 C-4.460625 5.381875 -4.23375 4.70125 -4 4 C-3.01 3.67 -2.02 3.34 -1 3 C-0.67 2.01 -0.34 1.02 0 0 Z " fill="#3EC8AA" transform="translate(52,35)"/>
<path d="M0 0 C0.33 0.66 0.66 1.32 1 2 C1.99 2 2.98 2 4 2 C4 2.66 4 3.32 4 4 C4.99 4 5.98 4 7 4 C5.95125002 6.62187494 5.35068687 7.79371361 2.875 9.25 C2.25625 9.4975 1.6375 9.745 1 10 C1 9.01 1 8.02 1 7 C-0.65 6.67 -2.3 6.34 -4 6 C-2.68 4.02 -1.36 2.04 0 0 Z " fill="#249C30" transform="translate(15,65)"/>
<path d="M0 0 C1.48484412 0.39595843 2.9628831 0.81750706 4.4375 1.25 C5.26121094 1.48203125 6.08492187 1.7140625 6.93359375 1.953125 C9 3 9 3 9.91015625 4.921875 C10 7 10 7 8 10 C6.66070495 8.71451591 5.32871357 7.42141845 4 6.125 C2.88625 5.04605469 2.88625 5.04605469 1.75 3.9453125 C0 2 0 2 0 0 Z " fill="#24A91D" transform="translate(9,25)"/>
<path d="M0 0 C3.375 0.25 3.375 0.25 7 1 C8.4375 3.0625 8.4375 3.0625 9 5 C8.01 5 7.02 5 6 5 C6.33 6.32 6.66 7.64 7 9 C5.68 9.33 4.36 9.66 3 10 C2.67 9.34 2.34 8.68 2 8 C2.99 8 3.98 8 5 8 C3.7625 6.8553125 3.7625 6.8553125 2.5 5.6875 C0 3 0 3 0 0 Z " fill="#1BAA8D" transform="translate(25,34)"/>
<path d="M0 0 C4.75 0.75 4.75 0.75 7 3 C7 3.99 7 4.98 7 6 C2.73383684 7.13764351 -0.56486311 8 -5 8 C-5 7.01 -5 6.02 -5 5 C-2.36 4.67 0.28 4.34 3 4 C3 3.01 3 2.02 3 1 C2.01 0.67 1.02 0.34 0 0 Z " fill="#17AC8A" transform="translate(37,50)"/>
<path d="M0 0 C6.48292295 -0.3669579 6.48292295 -0.3669579 8.9375 1.375 C10 3 10 3 10 5 C7.04335481 6.4783226 4.25770263 6.06032783 1 6 C1.33 5.34 1.66 4.68 2 4 C2.66 4 3.32 4 4 4 C4 3.01 4 2.02 4 1 C2.68 0.67 1.36 0.34 0 0 Z " fill="#25A685" transform="translate(49,52)"/>
<path d="M0 0 C1.65 0.33 3.3 0.66 5 1 C2.64209605 4.06527514 1.2895895 5.72042487 -2.55859375 6.5546875 C-5.0440291 6.78736655 -7.50459714 6.94670013 -10 7 C-7 5 -7 5 -3.875 3.5 C-0.91129192 2.31101699 -0.91129192 2.31101699 0 0 Z " fill="#20AB8C" transform="translate(55,38)"/>
<path d="M0 0 C0 0.99 0 1.98 0 3 C-4.3164922 3.76173392 -7.74433453 4.16063604 -12 3 C-8.2391768 -0.7608232 -5.0273023 -0.25136512 0 0 Z " fill="#2BAD91" transform="translate(40,51)"/>
<path d="M0 0 C0.66 0.99 1.32 1.98 2 3 C-0.97 3.66 -3.94 4.32 -7 5 C-7.99 3.68 -8.98 2.36 -10 1 C-6.61045199 -0.04293785 -3.53672026 -0.30754089 0 0 Z " fill="#1C824D" transform="translate(69,64)"/>
<path d="M0 0 C1.32 0.66 2.64 1.32 4 2 C3.34 2 2.68 2 2 2 C2 3.32 2 4.64 2 6 C-0.5 8.25 -0.5 8.25 -3 10 C-3.66 9.67 -4.32 9.34 -5 9 C-5 8.34 -5 7.68 -5 7 C-4 6 -3 5 -2 4 C-0.82425289 1.90010348 -0.82425289 1.90010348 0 0 Z " fill="#198956" transform="translate(64,28)"/>
<path d="M0 0 C2.31 0 4.62 0 7 0 C6.67 1.65 6.34 3.3 6 5 C3.36 4.67 0.72 4.34 -2 4 C-1.34 2.68 -0.68 1.36 0 0 Z " fill="#80C649" transform="translate(71,17)"/>
<path d="M0 0 C3.96 0 7.92 0 12 0 C12 0.33 12 0.66 12 1 C10.02 1 8.04 1 6 1 C6 2.32 6 3.64 6 5 C5.01 5.33 4.02 5.66 3 6 C3 5.01 3 4.02 3 3 C2.01 2.67 1.02 2.34 0 2 C0 1.34 0 0.68 0 0 Z " fill="#12C0A4" transform="translate(41,50)"/>
<path d="M0 0 C3.79588866 0.54226981 5.47211993 2.20127563 8 5 C7.67 5.66 7.34 6.32 7 7 C5.68 6.34 4.36 5.68 3 5 C2.67 5.66 2.34 6.32 2 7 C2 6.34 2 5.68 2 5 C1.01 4.67 0.02 4.34 -1 4 C-0.67 2.68 -0.34 1.36 0 0 Z " fill="#26A169" transform="translate(22,29)"/>
<path d="M0 0 C1.093125 0.0825 2.18625 0.165 3.3125 0.25 C2.6525 2.56 1.9925 4.87 1.3125 7.25 C0.9825 6.26 0.6525 5.27 0.3125 4.25 C0.6425 3.59 0.9725 2.93 1.3125 2.25 C-1.3275 2.91 -3.9675 3.57 -6.6875 4.25 C-4.79150483 0.68106792 -4.16790733 0.28256999 0 0 Z " fill="#52962F" transform="translate(13.6875,70.75)"/>
<path d="M0 0 C0.99 0.33 1.98 0.66 3 1 C2.25 3.4375 2.25 3.4375 1 6 C-1 6.9375 -1 6.9375 -3 7 C-3.66 6.34 -4.32 5.68 -5 5 C-3.35 3.35 -1.7 1.7 0 0 Z " fill="#41AE6C" transform="translate(62,25)"/>
<path d="M0 0 C2.64 0 5.28 0 8 0 C8.33 0.99 8.66 1.98 9 3 C6.36 3 3.72 3 1 3 C0.67 2.01 0.34 1.02 0 0 Z " fill="#4EA634" transform="translate(69,73)"/>
<path d="M0 0 C1.32 0.33 2.64 0.66 4 1 C2.95125002 3.62187494 2.35068687 4.79371361 -0.125 6.25 C-0.74375 6.4975 -1.3625 6.745 -2 7 C-1.125 2.25 -1.125 2.25 0 0 Z " fill="#2C9A3A" transform="translate(18,68)"/>
<path d="M0 0 C0.66 0.66 1.32 1.32 2 2 C1.625 4.125 1.625 4.125 1 6 C-0.32 6 -1.64 6 -3 6 C-3 4.35 -3 2.7 -3 1 C-2.01 0.67 -1.02 0.34 0 0 Z " fill="#1F9D7F" transform="translate(31,53)"/>
<path d="M0 0 C0.66 0.99 1.32 1.98 2 3 C-0.31 2.67 -2.62 2.34 -5 2 C-5.33 2.66 -5.66 3.32 -6 4 C-6.99 3.67 -7.98 3.34 -9 3 C-9 2.34 -9 1.68 -9 1 C-5.95699684 -0.52150158 -3.345915 -0.23899393 0 0 Z " fill="#1B9529" transform="translate(72,67)"/>
<path d="M0 0 C2.64 0.99 5.28 1.98 8 3 C8 3.33 8 3.66 8 4 C3.545 4.495 3.545 4.495 -1 5 C-1.33 4.01 -1.66 3.02 -2 2 C-1.34 2 -0.68 2 0 2 C0 1.34 0 0.68 0 0 Z " fill="#1BAF9D" transform="translate(32,41)"/>
<path d="M0 0 C2.31 0 4.62 0 7 0 C7 0.99 7 1.98 7 3 C4.69 2.67 2.38 2.34 0 2 C0 1.34 0 0.68 0 0 Z " fill="#37D4BB" transform="translate(38,42)"/>
<path d="M0 0 C1.485 0.99 1.485 0.99 3 2 C2.67 3.98 2.34 5.96 2 8 C1.01 7.34 0.02 6.68 -1 6 C-0.67 4.02 -0.34 2.04 0 0 Z " fill="#239C42" transform="translate(16,27)"/>
<path d="M0 0 C1.98 0 3.96 0 6 0 C6.33 0.99 6.66 1.98 7 3 C4.69 3 2.38 3 0 3 C0 2.01 0 1.02 0 0 Z " fill="#519455" transform="translate(2,15)"/>
<path d="M0 0 C-1.175625 0.680625 -1.175625 0.680625 -2.375 1.375 C-5.03698031 2.88428742 -5.03698031 2.88428742 -7 5 C-7.33 3.68 -7.66 2.36 -8 1 C-4.93251126 -0.86240388 -3.40254489 -1.2151946 0 0 Z " fill="#02A557" transform="translate(33,61)"/>
<path d="M0 0 C2.31 0.33 4.62 0.66 7 1 C7.33 1.99 7.66 2.98 8 4 C4.31245243 3.50168276 2.39509338 2.89932357 0 0 Z " fill="#109677" transform="translate(22,38)"/>
<path d="M0 0 C4.75 0.75 4.75 0.75 7 3 C7 3.99 7 4.98 7 6 C5.68 5.67 4.36 5.34 3 5 C3 3.68 3 2.36 3 1 C2.01 0.67 1.02 0.34 0 0 Z " fill="#0EC874" transform="translate(37,50)"/>
<path d="M0 0 C0.33 0.66 0.66 1.32 1 2 C1.99 2.33 2.98 2.66 4 3 C2 5 2 5 -0.625 5.125 C-1.40875 5.08375 -2.1925 5.0425 -3 5 C-3 4.34 -3 3.68 -3 3 C-2.34 3 -1.68 3 -1 3 C-0.67 2.01 -0.34 1.02 0 0 Z " fill="#1EC8A3" transform="translate(52,35)"/>
<path d="M0 0 C6.625 0.625 6.625 0.625 10 4 C6.7 3.34 3.4 2.68 0 2 C0 1.34 0 0.68 0 0 Z " fill="#51A629" transform="translate(6,23)"/>
<path d="M0 0 C1.32 0 2.64 0 4 0 C4 0.66 4 1.32 4 2 C4.99 2.33 5.98 2.66 7 3 C4.69 3.33 2.38 3.66 0 4 C0 2.68 0 1.36 0 0 Z " fill="#8BBD36" transform="translate(7,76)"/>
<path d="M0 0 C0.33 0.66 0.66 1.32 1 2 C1.66 2 2.32 2 3 2 C2.34 3.32 1.68 4.64 1 6 C0.01 5.67 -0.98 5.34 -2 5 C-1.34 3.35 -0.68 1.7 0 0 Z " fill="#2BA27C" transform="translate(55,32)"/>
<path d="M0 0 C2.475 0.99 2.475 0.99 5 2 C4.67 2.99 4.34 3.98 4 5 C2.68 4.34 1.36 3.68 0 3 C0 2.01 0 1.02 0 0 Z " fill="#29A485" transform="translate(25,34)"/>
</svg>
